<?xml version="1.0" encoding="UTF-8" standalone="no"?>
<svg
   xmlns:dc="http://purl.org/dc/elements/1.1/"
   xmlns:cc="http://creativecommons.org/ns#"
   xmlns:rdf="http://www.w3.org/1999/02/22-rdf-syntax-ns#"
   xmlns:svg="http://www.w3.org/2000/svg"
   xmlns="http://www.w3.org/2000/svg"
   id="svg4136"
   xml:space="preserve"
   enable-background="new 0 0 1300 500"
   viewBox="0 0 1193.742 435.018"
   height="435.01801"
   width="1193.7421"
   y="0px"
   x="0px"
   version="1.1"><metadata
     id="metadata4287"><rdf:RDF><cc:Work
         rdf:about=""><dc:format>image/svg+xml</dc:format><dc:type
           rdf:resource="http://purl.org/dc/dcmitype/StillImage" /><dc:title></dc:title></cc:Work></rdf:RDF></metadata><defs
     id="defs4285" /><g
     transform="matrix(0.89191146,0,0,0.89191146,49.999939,50)"
     id="g4289"><g
       id="Primary_Logo"
       transform="translate(-30.45,-62.194)"><g
         id="Design_1_"><g
           id="g4140"
           style="opacity:0.7"><path
             d="m 291.03,306.382 c -16.84,21.73 -43.19,35.75 -72.771,35.75 -50.79,0 -92.12,-41.33 -92.12,-92.13 0,-50.8 41.33,-92.13 92.12,-92.13 20.62,0 39.66,6.81 55.03,18.3 l -7.78,3.97 c -13.49,-9.149 -29.75,-14.51 -47.25,-14.51 -46.51,0 -84.359,37.851 -84.359,84.37 0,46.519 37.85,84.37 84.359,84.37 26.42,0 50.021,-12.2 65.49,-31.26 l 7.281,3.27 z"
             id="path4142"
             style="fill:#99083c" /></g><g
           id="g4144"
           style="opacity:0.7"><path
             d="m 320.4,319.712 c -4.301,6.28 -9.21,12.23 -14.71,17.72 -23.351,23.351 -54.4,36.21 -87.431,36.21 -33.02,0 -64.069,-12.859 -87.42,-36.21 -23.359,-23.35 -36.22,-54.399 -36.22,-87.43 0,-33.031 12.86,-64.08 36.22,-87.43 23.351,-23.351 54.4,-36.21 87.42,-36.21 32.11,0 62.34,12.149 85.45,34.279 l -18.33,9.37 -0.17,0.108 c -0.06,-0.049 -0.12,-0.12 -0.18,-0.12 l -0.011,0 c -18.699,-15 -42.069,-24.22 -66.76,-24.22 -27.84,0 -54.02,10.825 -73.71,30.526 -19.689,19.68 -30.53,45.854 -30.53,73.703 0,27.849 10.841,54.016 30.53,73.706 19.69,19.69 45.87,30.538 73.71,30.538 27.851,0 54.03,-10.851 73.721,-30.541 3.819,-3.82 7.3,-7.891 10.43,-12.16 l 0.06,0.029 17.931,8.132 z"
             id="path4146"
             style="fill:#99083c" /></g><g
           id="g4148"
           style="opacity:0.7"><path
             d="m 363.03,338.602 c -6.95,11.351 -15.221,21.86 -24.761,31.4 -15.59,15.58 -33.739,27.82 -53.949,36.37 -20.92,8.85 -43.15,13.34 -66.061,13.34 -22.899,0 -45.13,-4.49 -66.05,-13.34 -20.21,-8.55 -38.36,-20.79 -53.95,-36.37 -15.58,-15.58 -27.819,-33.73 -36.359,-53.94 -8.851,-20.93 -13.341,-43.149 -13.341,-66.06 0,-22.911 4.49,-45.13 13.341,-66.06 8.54,-20.21 20.779,-38.36 36.359,-53.94 15.59,-15.58 33.74,-27.82 53.95,-36.37 20.92,-8.85 43.15,-13.339 66.05,-13.339 22.91,0 45.141,4.489 66.061,13.339 20.21,8.55 38.359,20.79 53.949,36.37 2.851,2.85 5.58,5.78 8.2,8.8 l -9.819,5.021 c -1.9,-2.141 -3.881,-4.24 -5.931,-6.279 -30.04,-30.041 -69.97,-46.581 -112.46,-46.581 -42.47,0 -82.41,16.54 -112.45,46.581 -30.039,30.038 -46.579,69.977 -46.579,112.458 0,42.481 16.539,82.42 46.579,112.46 30.04,30.04 69.98,46.581 112.45,46.581 42.49,0 82.42,-16.541 112.46,-46.581 8.65,-8.65 16.17,-18.13 22.511,-28.25 l 9.8,4.39 z"
             id="path4150"
             style="fill:#6cbec3" /></g><g
           id="g4152"
           style="opacity:0.7"><path
             d="m 379.69,346.052 c -7.931,13.33 -17.5,25.63 -28.62,36.75 -17.25,17.25 -37.33,30.79 -59.7,40.25 -23.16,9.8 -47.75,14.76 -73.11,14.76 -25.35,0 -49.939,-4.96 -73.1,-14.76 -22.36,-9.46 -42.45,-23 -59.7,-40.25 -17.25,-17.24 -30.79,-37.33 -40.25,-59.689 -9.79,-23.16 -14.76,-47.761 -14.76,-73.11 0,-25.349 4.97,-49.95 14.76,-73.11 9.46,-22.359 23,-42.449 40.25,-59.689 17.25,-17.25 37.34,-30.79 59.7,-40.25 23.16,-9.8 47.75,-14.76 73.1,-14.76 25.36,0 49.95,4.96 73.11,14.76 22.37,9.46 42.45,23 59.7,40.25 4.21,4.21 8.199,8.6 11.96,13.149 l -3.84,1.96 c -3.511,-4.189 -7.2,-8.239 -11.101,-12.14 -16.859,-16.86 -36.5,-30.1 -58.359,-39.35 -22.631,-9.57 -46.681,-14.42 -71.471,-14.42 -24.779,0 -48.83,4.85 -71.46,14.42 -21.859,9.25 -41.5,22.489 -58.359,39.35 -16.86,16.871 -30.101,36.5 -39.351,58.371 -9.57,22.629 -14.43,46.669 -14.43,71.459 0,24.791 4.859,48.83 14.43,71.47 9.25,21.86 22.49,41.49 39.351,58.36 16.859,16.86 36.5,30.1 58.359,39.35 22.63,9.57 46.681,14.42 71.46,14.42 24.79,0 48.84,-4.85 71.471,-14.42 21.859,-9.25 41.5,-22.489 58.359,-39.35 10.75,-10.75 20.021,-22.64 27.73,-35.51 l 3.871,1.729 z"
             id="path4154"
             style="fill:#99083c" /></g><g
           id="g4156"
           style="opacity:0.7"><path
             d="m 360.849,228.422 c -2.901,-19.084 -9.456,-37.026 -19.479,-53.334 -9.68,-15.751 -22.171,-29.316 -37.126,-40.323 -14.957,-11.007 -31.625,-18.899 -49.539,-23.46 -18.549,-4.721 -37.631,-5.643 -56.714,-2.74 -4.466,0.678 -8.865,1.564 -13.2,2.641 0.916,0.787 1.723,1.692 2.383,2.719 3.717,-0.877 7.484,-1.611 11.299,-2.193 18.657,-2.838 37.311,-1.936 55.441,2.678 17.514,4.459 33.808,12.174 48.43,22.937 14.622,10.761 26.834,24.024 36.297,39.42 9.797,15.94 16.202,33.481 19.04,52.139 2.838,18.655 1.937,37.31 -2.678,55.44 -4.457,17.515 -12.174,33.808 -22.935,48.43 -10.763,14.623 -24.025,26.834 -39.422,36.297 -15.938,9.797 -33.481,16.203 -52.138,19.04 -18.655,2.837 -37.309,1.936 -55.44,-2.678 -15.642,-3.981 -30.308,-10.566 -43.68,-19.594 -0.666,0.837 -1.34,1.667 -2.029,2.486 13.744,9.319 28.824,16.115 44.919,20.213 18.549,4.721 37.63,5.643 56.712,2.741 19.082,-2.902 37.027,-9.457 53.334,-19.479 15.749,-9.68 29.317,-22.172 40.324,-37.127 11.008,-14.957 18.899,-31.624 23.46,-49.539 4.721,-18.55 5.642,-37.632 2.741,-56.714 z"
             id="path4158"
             style="fill:#6cbec3" /></g><g
           id="g4160"
           style="opacity:0.7"><path
             d="m 217.974,188.058 c 34.741,0 63.004,28.264 63.004,63.003 0,34.74 -28.263,63.002 -63.004,63.002 -10.916,0 -21.186,-2.801 -30.146,-7.707 -1.484,1.027 -2.977,2.041 -4.483,3.031 10.143,6.047 21.987,9.525 34.629,9.525 37.414,0 67.853,-30.438 67.853,-67.852 0,-37.412 -30.438,-67.852 -67.853,-67.852 -19.552,0 -37.189,8.318 -49.582,21.593 1.681,0.587 3.365,1.167 5.054,1.742 11.408,-11.41 27.154,-18.485 44.528,-18.485 z"
             id="path4162"
             style="fill:#99083c" /></g><g
           id="g4164"
           style="opacity:0.7"><path
             d="m 366.081,304.261 c 4.11,1.622 8.134,3.481 12.117,5.446 6.403,-18.834 9.755,-38.879 9.755,-59.466 0,-28.868 -6.568,-56.681 -18.945,-81.562 -4.034,1.812 -8.131,3.478 -12.318,4.926 11.787,23.316 18.047,49.465 18.047,76.636 -0.001,18.688 -2.973,36.888 -8.656,54.02 z"
             id="path4166"
             style="fill:#99083c" /></g></g></g><g
       id="Secondary_Logo"
       transform="translate(-30.45,-62.194)"><g
         id="g4169"><path
           d="m 435.383,341.151 0,-71.634 33.51,0 c 21.402,0 32.104,11.938 32.104,35.816 0,10.903 -2.709,19.498 -8.126,25.784 -5.754,6.689 -14.014,10.033 -24.781,10.033 l -32.707,0 z m 4.615,-67.621 0,63.608 28.995,0 c 8.359,0 14.914,-2.542 19.664,-7.625 5.149,-5.483 7.725,-13.545 7.725,-24.18 0,-21.202 -9.498,-31.804 -28.492,-31.804 l -27.892,0 z"
           id="path4171"
           style="fill:#99999a" /><path
           d="m 515.543,341.151 0,-71.634 56.585,0 0,4.013 -51.97,0 0,28.493 49.863,0 0,4.013 -49.863,0 0,31.103 52.571,0 0,4.013 -57.186,0 z"
           id="path4173"
           style="fill:#99999a" /><path
           d="m 581.358,317.474 4.614,0 c 0.134,14.181 9.297,21.27 27.49,21.27 8.227,0 14.413,-1.604 18.561,-4.815 3.612,-2.81 5.418,-6.521 5.418,-11.137 0,-4.078 -1.305,-7.173 -3.913,-9.28 -2.608,-2.106 -7.592,-3.928 -14.948,-5.468 l -13.344,-2.809 c -7.961,-1.672 -13.562,-3.879 -16.806,-6.622 -3.244,-2.742 -4.865,-6.788 -4.865,-12.14 0,-5.551 2.357,-10.033 7.073,-13.444 4.715,-3.411 11.387,-5.116 20.015,-5.116 19.53,0 29.529,7.291 29.998,21.871 l -4.614,0 c -0.87,-11.904 -8.896,-17.858 -24.079,-17.858 -15.45,0 -23.176,4.884 -23.176,14.648 0,3.947 1.104,6.923 3.311,8.929 2.474,2.207 7.023,3.947 13.645,5.218 l 14.749,2.909 c 7.624,1.472 13.108,3.546 16.453,6.22 3.812,2.944 5.719,7.158 5.719,12.642 0,5.686 -2.007,10.269 -6.02,13.745 -4.95,4.349 -12.541,6.521 -22.774,6.521 -21.672,-10e-4 -32.507,-8.429 -32.507,-25.284 z"
           id="path4175"
           style="fill:#99999a" /><path
           d="m 655.499,341.151 0,-71.634 4.615,0 0,71.634 -4.615,0 z"
           id="path4177"
           style="fill:#99999a" /><path
           d="m 714.391,309.448 0,-4.014 33.409,0 0,35.717 -4.013,0 0,-17.657 c -2.616,6.22 -6.809,11.035 -12.577,14.446 -5.434,3.211 -11.705,4.816 -18.816,4.816 -11.202,0 -20.291,-3.276 -27.267,-9.832 -7.312,-6.822 -10.968,-16.019 -10.968,-27.591 0,-9.765 3.076,-18.159 9.23,-25.182 7.023,-8.16 16.654,-12.24 28.895,-12.24 8.895,0 16.354,2.106 22.373,6.32 6.019,4.214 9.898,10.134 11.638,17.759 l -4.614,0 c -1.473,-6.422 -4.951,-11.438 -10.435,-15.05 -5.217,-3.344 -11.538,-5.017 -18.962,-5.017 -9.967,0 -18.094,3.312 -24.38,9.933 -6.087,6.355 -9.13,14.181 -9.13,23.477 0,9.499 2.843,17.324 8.528,23.478 6.085,6.621 14.412,9.932 24.981,9.932 9.029,0 16.304,-2.608 21.821,-7.825 5.517,-5.217 8.544,-12.373 9.08,-21.47 l -28.793,0 z"
           id="path4179"
           style="fill:#99999a" /><path
           d="m 763.751,341.151 0,-71.634 5.84,0 53.654,65.213 0,-65.213 4.615,0 0,71.634 -5.839,0 -53.655,-65.213 0,65.213 -4.615,0 z"
           id="path4181"
           style="fill:#99999a" /><path
           d="m 866.986,317.474 4.614,0 c 0.134,14.181 9.297,21.27 27.49,21.27 8.227,0 14.413,-1.604 18.561,-4.815 3.612,-2.81 5.418,-6.521 5.418,-11.137 0,-4.078 -1.305,-7.173 -3.913,-9.28 -2.608,-2.106 -7.592,-3.928 -14.948,-5.468 l -13.344,-2.809 c -7.961,-1.672 -13.562,-3.879 -16.806,-6.622 -3.244,-2.742 -4.865,-6.788 -4.865,-12.14 0,-5.551 2.357,-10.033 7.073,-13.444 4.715,-3.411 11.387,-5.116 20.015,-5.116 19.53,0 29.529,7.291 29.998,21.871 l -4.614,0 c -0.87,-11.904 -8.896,-17.858 -24.079,-17.858 -15.45,0 -23.176,4.884 -23.176,14.648 0,3.947 1.104,6.923 3.311,8.929 2.474,2.207 7.023,3.947 13.645,5.218 l 14.749,2.909 c 7.624,1.472 13.108,3.546 16.453,6.22 3.812,2.944 5.719,7.158 5.719,12.642 0,5.686 -2.007,10.269 -6.02,13.745 -4.95,4.349 -12.541,6.521 -22.774,6.521 -21.672,-10e-4 -32.507,-8.429 -32.507,-25.284 z"
           id="path4183"
           style="fill:#99999a" /><path
           d="m 933.603,273.53 0,-4.013 62.404,0 0,4.013 -28.895,0 0,67.621 -4.615,0 0,-67.621 -28.894,0 z"
           id="path4185"
           style="fill:#99999a" /><path
           d="m 1003.933,314.665 0,-45.147 4.615,0 0,44.946 c 0,8.026 2.039,13.98 6.119,17.858 4.348,4.281 11.338,6.421 20.969,6.421 9.632,0 16.62,-2.14 20.969,-6.421 4.079,-3.878 6.12,-9.832 6.12,-17.858 l 0,-44.946 4.615,0 0,45.147 c 0,18.729 -10.569,28.092 -31.704,28.092 -21.136,0 -31.703,-9.363 -31.703,-28.092 z"
           id="path4187"
           style="fill:#99999a" /><path
           d="m 1082.788,341.151 0,-71.634 33.51,0 c 21.402,0 32.104,11.938 32.104,35.816 0,10.903 -2.709,19.498 -8.126,25.784 -5.754,6.689 -14.014,10.033 -24.781,10.033 l -32.707,0 z m 4.615,-67.621 0,63.608 28.995,0 c 8.359,0 14.914,-2.542 19.664,-7.625 5.149,-5.483 7.725,-13.545 7.725,-24.18 0,-21.202 -9.498,-31.804 -28.492,-31.804 l -27.892,0 z"
           id="path4189"
           style="fill:#99999a" /><path
           d="m 1162.949,341.151 0,-71.634 4.615,0 0,71.634 -4.615,0 z"
           id="path4191"
           style="fill:#99999a" /><path
           d="m 1180.505,305.334 c 0,-8.962 2.709,-16.955 8.127,-23.978 6.888,-8.963 16.855,-13.444 29.897,-13.444 13.043,0 23.008,4.481 29.897,13.444 5.418,7.022 8.127,15.016 8.127,23.978 0,8.964 -2.709,16.956 -8.127,23.979 -6.89,8.964 -16.854,13.444 -29.897,13.444 -13.042,0 -23.01,-4.48 -29.897,-13.444 -5.418,-7.023 -8.127,-15.015 -8.127,-23.979 z m 4.615,0 c 0,9.098 2.875,16.822 8.628,23.176 6.221,6.822 14.48,10.233 24.781,10.233 10.3,0 18.561,-3.411 24.781,-10.233 5.752,-6.354 8.628,-14.078 8.628,-23.176 0,-9.095 -2.876,-16.82 -8.628,-23.176 -6.221,-6.822 -14.481,-10.233 -24.781,-10.233 -10.301,0 -18.561,3.411 -24.781,10.233 -5.753,6.356 -8.628,14.081 -8.628,23.176 z"
           id="path4193"
           style="fill:#99999a" /></g><g
         id="g4195"><path
           d="m 436.538,246.349 0,-100.452 14.913,0 0,87.508 61.059,0 0,12.943 -75.972,0 z"
           id="path4197"
           style="fill:#99083c" /><path
           d="m 530.235,246.349 0,-100.452 80.755,0 0,12.943 -65.842,0 0,29.122 63.872,0 0,12.943 -63.872,0 0,32.499 67.249,0 0,12.943 -82.162,0 z"
           id="path4199"
           style="fill:#99083c" /><path
           d="m 714.395,246.349 -12.802,-29.263 -49.241,0 -12.803,29.263 -16.038,0 45.442,-100.451 17.022,0 45.442,100.451 -17.022,0 z m -18.29,-42.206 -19.274,-44.458 -18.852,44.458 38.126,0 z"
           id="path4201"
           style="fill:#99083c" /><path
           d="m 747.877,246.349 0,-100.452 62.185,0 c 9.285,0 16.365,2.862 21.243,8.582 4.127,4.783 6.19,10.833 6.19,18.148 0,12.943 -5.627,21.198 -16.882,24.762 l 0,0.281 c 4.407,0.657 7.878,2.884 10.41,6.683 2.532,3.798 3.939,8.7 4.221,14.701 0.469,9.662 0.937,16.039 1.407,19.134 0.655,3.565 1.78,6.285 3.376,8.16 l -15.757,0 c -1.125,-1.312 -1.877,-3.328 -2.251,-6.05 -0.188,-1.499 -0.471,-5.86 -0.844,-13.084 -0.471,-8.723 -2.229,-14.818 -5.276,-18.289 -3.049,-3.469 -7.762,-5.206 -14.139,-5.206 l -38.97,0 0,42.629 -14.913,0 z m 14.913,-55.572 41.644,0 c 12.1,0 18.148,-5.298 18.148,-15.898 0,-10.692 -5.908,-16.038 -17.727,-16.038 l -42.065,0 0,31.936 z"
           id="path4203"
           style="fill:#99083c" /><path
           d="m 939.995,246.349 -64.798,-79.911 0,79.911 -14.913,0 0,-100.452 17.364,0 64.798,79.911 0,-79.911 14.913,0 0,100.451 -17.364,0 z"
           id="path4205"
           style="fill:#99083c" /><path
           d="m 986.48,246.349 0,-100.452 14.912,0 0,100.451 -14.912,0 z"
           id="path4207"
           style="fill:#99083c" /><path
           d="m 1110.226,246.349 -64.798,-79.911 0,79.911 -14.913,0 0,-100.452 17.364,0 64.798,79.911 0,-79.911 14.913,0 0,100.451 -17.364,0 z"
           id="path4209"
           style="fill:#99083c" /><path
           d="m 1210.594,205.127 0,-12.943 46.146,0 0,54.165 -10.692,0 -2.532,-14.351 c -9.661,11.256 -22.51,16.883 -38.548,16.883 -18.29,0 -32.172,-5.768 -41.644,-17.305 -7.598,-9.19 -11.396,-20.445 -11.396,-33.765 0,-18.101 5.533,-32.028 16.602,-41.784 9.473,-8.441 21.477,-12.662 36.016,-12.662 28.419,0 45.254,11.396 50.508,34.187 l -15.758,0 c -4.69,-14.161 -16.038,-21.243 -34.046,-21.243 -12.569,0 -22.277,4.033 -29.123,12.099 -6.189,7.224 -9.285,16.602 -9.285,28.138 0,13.414 3.891,23.543 11.678,30.389 6.845,6.004 15.989,9.004 27.434,9.004 10.692,0 19.508,-2.906 26.449,-8.723 6.659,-5.627 10.362,-12.989 11.114,-22.088 l -32.923,0 z"
           id="path4211"
           style="fill:#99083c" /></g><g
         id="g4213"><path
           d="m 554.447,372.893 c -0.175,-0.84 -0.458,-1.575 -0.851,-2.205 -0.393,-0.63 -0.879,-1.154 -1.456,-1.574 -0.578,-0.42 -1.228,-0.735 -1.947,-0.945 -0.72,-0.209 -1.483,-0.314 -2.291,-0.314 -1.396,0 -2.591,0.264 -3.583,0.791 -0.993,0.526 -1.811,1.235 -2.454,2.125 -0.643,0.89 -1.118,1.904 -1.424,3.047 -0.306,1.143 -0.458,2.328 -0.458,3.559 0,1.339 0.152,2.607 0.458,3.805 0.306,1.198 0.78,2.24 1.424,3.131 0.644,0.89 1.467,1.598 2.471,2.125 1.003,0.526 2.203,0.79 3.6,0.79 1.025,0 1.936,-0.17 2.732,-0.512 0.796,-0.342 1.483,-0.815 2.062,-1.421 0.579,-0.606 1.031,-1.327 1.358,-2.164 0.327,-0.838 0.523,-1.74 0.589,-2.71 l 3.108,0 c -0.306,2.924 -1.325,5.215 -3.06,6.872 -1.734,1.658 -4.085,2.487 -7.052,2.487 -1.812,0 -3.393,-0.316 -4.745,-0.949 -1.352,-0.633 -2.477,-1.494 -3.37,-2.585 -0.896,-1.091 -1.566,-2.378 -2.013,-3.861 -0.447,-1.483 -0.671,-3.076 -0.671,-4.778 0,-1.701 0.239,-3.299 0.72,-4.794 0.479,-1.494 1.184,-2.798 2.11,-3.91 0.928,-1.112 2.078,-1.99 3.453,-2.635 1.374,-0.643 2.966,-0.965 4.777,-0.965 1.222,0 2.378,0.164 3.469,0.491 1.091,0.327 2.062,0.807 2.912,1.439 0.85,0.632 1.56,1.424 2.127,2.372 0.567,0.949 0.938,2.046 1.113,3.289 l -3.108,0 z"
           id="path4215"
           style="fill:#6cbec3" /><path
           d="m 562.398,372.304 2.618,0 0,3.566 0.065,0 c 0.676,-1.374 1.505,-2.389 2.486,-3.043 0.982,-0.654 2.226,-0.96 3.73,-0.916 l 0,2.945 c -1.112,0 -2.062,0.152 -2.847,0.458 -0.785,0.306 -1.418,0.752 -1.897,1.342 -0.48,0.589 -0.83,1.309 -1.048,2.159 -0.218,0.85 -0.327,1.812 -0.327,2.88 l 0,7.526 -2.781,0 0,-16.917 z"
           id="path4217"
           style="fill:#6cbec3" /><path
           d="m 588.545,383.855 c -0.371,1.876 -1.189,3.305 -2.454,4.286 -1.266,0.981 -2.858,1.473 -4.777,1.473 -1.354,0 -2.525,-0.224 -3.519,-0.671 -0.992,-0.446 -1.827,-1.063 -2.503,-1.849 -0.677,-0.785 -1.184,-1.724 -1.521,-2.814 -0.339,-1.091 -0.529,-2.279 -0.573,-3.566 0,-1.266 0.196,-2.438 0.589,-3.519 0.394,-1.079 0.943,-2.012 1.653,-2.798 0.708,-0.785 1.549,-1.396 2.52,-1.832 0.971,-0.436 2.034,-0.654 3.19,-0.654 1.505,0 2.754,0.311 3.747,0.933 0.992,0.621 1.788,1.412 2.389,2.372 0.6,0.96 1.015,2.008 1.243,3.142 0.229,1.135 0.322,2.215 0.278,3.239 l -12.664,0 c -0.021,0.742 0.065,1.446 0.262,2.111 0.197,0.665 0.513,1.255 0.949,1.767 0.437,0.513 0.992,0.922 1.669,1.228 0.676,0.306 1.473,0.458 2.389,0.458 1.156,0 2.116,-0.272 2.88,-0.818 0.764,-0.545 1.265,-1.374 1.505,-2.486 l 2.748,0 z m -2.684,-4.712 c -0.044,-0.654 -0.191,-1.276 -0.441,-1.865 -0.251,-0.589 -0.589,-1.096 -1.015,-1.521 -0.425,-0.426 -0.933,-0.764 -1.521,-1.015 -0.589,-0.25 -1.222,-0.376 -1.898,-0.376 -0.72,0 -1.369,0.126 -1.946,0.376 -0.578,0.251 -1.075,0.595 -1.489,1.031 -0.415,0.437 -0.742,0.943 -0.981,1.521 -0.24,0.578 -0.382,1.194 -0.426,1.849 l 9.717,0 z"
           id="path4219"
           style="fill:#6cbec3" /><path
           d="m 607.982,389.156 c -0.502,0.306 -1.168,0.458 -1.996,0.458 -0.721,0 -1.293,-0.207 -1.719,-0.622 -0.425,-0.414 -0.638,-1.079 -0.638,-1.996 -0.764,0.917 -1.652,1.582 -2.667,1.996 -1.015,0.415 -2.11,0.622 -3.289,0.622 -0.764,0 -1.488,-0.087 -2.176,-0.262 -0.688,-0.175 -1.282,-0.452 -1.783,-0.834 -0.502,-0.382 -0.9,-0.873 -1.194,-1.473 -0.295,-0.601 -0.442,-1.325 -0.442,-2.177 0,-0.959 0.164,-1.745 0.491,-2.355 0.327,-0.61 0.758,-1.102 1.293,-1.473 0.534,-0.371 1.145,-0.66 1.832,-0.867 0.687,-0.207 1.391,-0.377 2.11,-0.508 0.764,-0.152 1.489,-0.267 2.177,-0.343 0.687,-0.076 1.292,-0.186 1.815,-0.328 0.524,-0.142 0.938,-0.349 1.244,-0.621 0.305,-0.272 0.458,-0.671 0.458,-1.194 0,-0.61 -0.114,-1.102 -0.344,-1.473 -0.229,-0.371 -0.523,-0.654 -0.884,-0.851 -0.359,-0.196 -0.764,-0.328 -1.21,-0.394 -0.448,-0.065 -0.89,-0.098 -1.326,-0.098 -1.178,0 -2.159,0.224 -2.944,0.671 -0.786,0.447 -1.211,1.292 -1.276,2.536 l -2.781,0 c 0.043,-1.047 0.262,-1.931 0.654,-2.65 0.393,-0.721 0.916,-1.304 1.57,-1.751 0.654,-0.447 1.407,-0.77 2.258,-0.966 0.851,-0.196 1.745,-0.294 2.684,-0.294 0.764,0 1.521,0.055 2.274,0.163 0.753,0.109 1.434,0.333 2.045,0.671 0.61,0.339 1.102,0.813 1.473,1.424 0.371,0.611 0.557,1.407 0.557,2.389 l 0,8.704 c 0,0.655 0.037,1.135 0.114,1.44 0.076,0.306 0.332,0.458 0.769,0.458 0.263,0 0.546,-0.055 0.852,-0.164 l 0,2.162 z m -4.516,-8.672 c -0.262,0.196 -0.589,0.35 -0.981,0.458 -0.393,0.109 -0.808,0.202 -1.243,0.278 -0.437,0.077 -0.9,0.143 -1.391,0.196 -0.491,0.055 -0.966,0.126 -1.424,0.213 -0.458,0.087 -0.895,0.196 -1.309,0.327 -0.415,0.131 -0.775,0.311 -1.08,0.54 -0.306,0.229 -0.552,0.519 -0.736,0.867 -0.186,0.35 -0.278,0.785 -0.278,1.309 0,0.458 0.093,0.846 0.278,1.162 0.185,0.316 0.426,0.572 0.72,0.769 0.295,0.196 0.639,0.339 1.031,0.426 0.392,0.087 0.807,0.131 1.243,0.131 0.916,0 1.701,-0.125 2.356,-0.376 0.654,-0.251 1.188,-0.567 1.604,-0.949 0.414,-0.382 0.72,-0.796 0.916,-1.244 0.196,-0.446 0.294,-0.867 0.294,-1.26 l 0,-2.847 z"
           id="path4221"
           style="fill:#6cbec3" /><path
           d="m 615.737,372.304 3.37,0 0,2.454 -3.37,0 0,10.504 c 0,0.328 0.026,0.59 0.081,0.786 0.055,0.196 0.158,0.349 0.312,0.458 0.152,0.109 0.365,0.18 0.638,0.213 0.272,0.032 0.627,0.049 1.063,0.049 l 1.276,0 0,2.454 -2.127,0 c -0.72,0 -1.337,-0.049 -1.849,-0.147 -0.513,-0.098 -0.928,-0.278 -1.244,-0.54 -0.316,-0.262 -0.551,-0.632 -0.703,-1.112 -0.153,-0.479 -0.229,-1.112 -0.229,-1.898 l 0,-10.766 -2.879,0 0,-2.454 2.879,0 0,-5.072 2.782,0 0,5.071 z"
           id="path4223"
           style="fill:#6cbec3" /><path
           d="m 626.438,369.261 -2.781,0 0,-3.403 2.781,0 0,3.403 z m -2.782,3.043 2.781,0 0,16.918 -2.781,0 0,-16.918 z"
           id="path4225"
           style="fill:#6cbec3" /><path
           d="m 639.657,389.222 -2.945,0 -6.283,-16.918 3.108,0 4.728,14.104 0.065,0 4.566,-14.104 2.945,0 -6.184,16.918 z"
           id="path4227"
           style="fill:#6cbec3" /><path
           d="m 652.68,369.261 -2.781,0 0,-3.403 2.781,0 0,3.403 z m -2.782,3.043 2.781,0 0,16.918 -2.781,0 0,-16.918 z"
           id="path4229"
           style="fill:#6cbec3" /><path
           d="m 662.17,372.304 3.37,0 0,2.454 -3.37,0 0,10.504 c 0,0.328 0.026,0.59 0.081,0.786 0.055,0.196 0.158,0.349 0.312,0.458 0.152,0.109 0.365,0.18 0.638,0.213 0.272,0.032 0.627,0.049 1.063,0.049 l 1.276,0 0,2.454 -2.127,0 c -0.72,0 -1.337,-0.049 -1.849,-0.147 -0.513,-0.098 -0.928,-0.278 -1.244,-0.54 -0.316,-0.262 -0.551,-0.632 -0.703,-1.112 -0.153,-0.479 -0.229,-1.112 -0.229,-1.898 l 0,-10.766 -2.879,0 0,-2.454 2.879,0 0,-5.072 2.782,0 0,5.071 z"
           id="path4231"
           style="fill:#6cbec3" /><path
           d="m 676.6,391.479 c -0.329,0.829 -0.652,1.527 -0.97,2.095 -0.317,0.566 -0.663,1.03 -1.036,1.391 -0.372,0.359 -0.8,0.621 -1.282,0.785 -0.481,0.164 -1.03,0.245 -1.644,0.245 -0.329,0 -0.658,-0.021 -0.987,-0.065 -0.328,-0.044 -0.646,-0.12 -0.952,-0.229 l 0,-2.553 c 0.262,0.087 0.528,0.175 0.801,0.262 0.273,0.087 0.551,0.131 0.835,0.131 0.567,0 1.025,-0.131 1.374,-0.393 0.349,-0.262 0.655,-0.644 0.917,-1.146 l 1.145,-2.88 -6.708,-16.819 3.142,0 4.941,13.842 0.065,0 4.745,-13.842 2.944,0 -7.33,19.176 z"
           id="path4233"
           style="fill:#6cbec3" /><path
           d="m 698.426,363.501 2.226,0 0,32.724 -2.226,0 0,-32.724 z"
           id="path4235"
           style="fill:#99083c" /><path
           d="m 733.864,372.893 c -0.175,-0.84 -0.458,-1.575 -0.851,-2.205 -0.393,-0.63 -0.879,-1.154 -1.456,-1.574 -0.578,-0.42 -1.228,-0.735 -1.947,-0.945 -0.72,-0.209 -1.483,-0.314 -2.291,-0.314 -1.396,0 -2.591,0.264 -3.583,0.791 -0.993,0.526 -1.811,1.235 -2.454,2.125 -0.643,0.89 -1.118,1.904 -1.424,3.047 -0.306,1.143 -0.458,2.328 -0.458,3.559 0,1.339 0.152,2.607 0.458,3.805 0.306,1.198 0.78,2.24 1.424,3.131 0.644,0.89 1.467,1.598 2.471,2.125 1.003,0.526 2.203,0.79 3.6,0.79 1.025,0 1.936,-0.17 2.732,-0.512 0.796,-0.342 1.483,-0.815 2.062,-1.421 0.579,-0.606 1.031,-1.327 1.358,-2.164 0.327,-0.838 0.523,-1.74 0.589,-2.71 l 3.108,0 c -0.306,2.924 -1.325,5.215 -3.06,6.872 -1.734,1.658 -4.085,2.487 -7.052,2.487 -1.812,0 -3.393,-0.316 -4.745,-0.949 -1.352,-0.633 -2.477,-1.494 -3.37,-2.585 -0.896,-1.091 -1.566,-2.378 -2.013,-3.861 -0.447,-1.483 -0.671,-3.076 -0.671,-4.778 0,-1.701 0.239,-3.299 0.72,-4.794 0.479,-1.494 1.184,-2.798 2.11,-3.91 0.928,-1.112 2.078,-1.99 3.453,-2.635 1.374,-0.643 2.966,-0.965 4.777,-0.965 1.222,0 2.378,0.164 3.469,0.491 1.091,0.327 2.062,0.807 2.912,1.439 0.85,0.632 1.56,1.424 2.127,2.372 0.567,0.949 0.938,2.046 1.113,3.289 l -3.108,0 z"
           id="path4237"
           style="fill:#6cbec3" /><path
           d="m 741.521,377.294 c 0.35,-1.08 0.873,-2.018 1.571,-2.814 0.698,-0.796 1.555,-1.423 2.568,-1.882 1.015,-0.458 2.198,-0.687 3.551,-0.687 1.33,0 2.509,0.229 3.534,0.687 1.025,0.459 1.887,1.086 2.585,1.882 0.698,0.797 1.222,1.734 1.571,2.814 0.349,1.08 0.523,2.241 0.523,3.485 0,1.243 -0.175,2.399 -0.523,3.469 -0.35,1.068 -0.873,2.001 -1.571,2.798 -0.698,0.796 -1.56,1.423 -2.585,1.881 -1.025,0.459 -2.204,0.688 -3.534,0.688 -1.353,0 -2.536,-0.229 -3.551,-0.688 -1.014,-0.458 -1.87,-1.085 -2.568,-1.881 -0.698,-0.797 -1.222,-1.729 -1.571,-2.798 -0.349,-1.069 -0.523,-2.226 -0.523,-3.469 -0.001,-1.244 0.174,-2.405 0.523,-3.485 z m 2.831,6.218 c 0.272,0.796 0.648,1.462 1.129,1.996 0.479,0.534 1.042,0.943 1.686,1.227 0.643,0.284 1.325,0.426 2.045,0.426 0.72,0 1.401,-0.142 2.045,-0.426 0.644,-0.283 1.205,-0.692 1.686,-1.227 0.479,-0.534 0.856,-1.2 1.129,-1.996 0.272,-0.797 0.409,-1.707 0.409,-2.732 0,-1.025 -0.137,-1.937 -0.409,-2.732 -0.272,-0.797 -0.649,-1.467 -1.129,-2.013 -0.48,-0.545 -1.042,-0.96 -1.686,-1.243 -0.644,-0.284 -1.325,-0.426 -2.045,-0.426 -0.72,0 -1.402,0.142 -2.045,0.426 -0.644,0.283 -1.206,0.698 -1.686,1.243 -0.48,0.546 -0.856,1.216 -1.129,2.013 -0.273,0.796 -0.409,1.707 -0.409,2.732 0,1.025 0.135,1.935 0.409,2.732 z"
           id="path4239"
           style="fill:#6cbec3" /><path
           d="m 762.169,365.857 2.781,0 0,23.364 -2.781,0 0,-23.364 z"
           id="path4241"
           style="fill:#6cbec3" /><path
           d="m 770.742,365.857 2.781,0 0,23.364 -2.781,0 0,-23.364 z"
           id="path4243"
           style="fill:#6cbec3" /><path
           d="m 794.139,389.156 c -0.502,0.306 -1.168,0.458 -1.996,0.458 -0.721,0 -1.293,-0.207 -1.719,-0.622 -0.425,-0.414 -0.638,-1.079 -0.638,-1.996 -0.764,0.917 -1.652,1.582 -2.667,1.996 -1.015,0.415 -2.11,0.622 -3.289,0.622 -0.764,0 -1.488,-0.087 -2.176,-0.262 -0.688,-0.175 -1.282,-0.452 -1.783,-0.834 -0.502,-0.382 -0.9,-0.873 -1.194,-1.473 -0.295,-0.601 -0.442,-1.325 -0.442,-2.177 0,-0.959 0.164,-1.745 0.491,-2.355 0.327,-0.61 0.758,-1.102 1.293,-1.473 0.534,-0.371 1.145,-0.66 1.832,-0.867 0.687,-0.207 1.391,-0.377 2.11,-0.508 0.764,-0.152 1.489,-0.267 2.177,-0.343 0.687,-0.076 1.292,-0.186 1.815,-0.328 0.524,-0.142 0.938,-0.349 1.244,-0.621 0.305,-0.272 0.458,-0.671 0.458,-1.194 0,-0.61 -0.114,-1.102 -0.344,-1.473 -0.229,-0.371 -0.523,-0.654 -0.884,-0.851 -0.359,-0.196 -0.764,-0.328 -1.21,-0.394 -0.448,-0.065 -0.89,-0.098 -1.326,-0.098 -1.178,0 -2.159,0.224 -2.944,0.671 -0.786,0.447 -1.211,1.292 -1.276,2.536 l -2.781,0 c 0.043,-1.047 0.262,-1.931 0.654,-2.65 0.393,-0.721 0.916,-1.304 1.57,-1.751 0.654,-0.447 1.407,-0.77 2.258,-0.966 0.851,-0.196 1.745,-0.294 2.684,-0.294 0.764,0 1.521,0.055 2.274,0.163 0.753,0.109 1.434,0.333 2.045,0.671 0.61,0.339 1.102,0.813 1.473,1.424 0.371,0.611 0.557,1.407 0.557,2.389 l 0,8.704 c 0,0.655 0.037,1.135 0.114,1.44 0.076,0.306 0.332,0.458 0.769,0.458 0.263,0 0.546,-0.055 0.852,-0.164 l 0,2.162 z m -4.517,-8.672 c -0.262,0.196 -0.589,0.35 -0.981,0.458 -0.393,0.109 -0.808,0.202 -1.243,0.278 -0.437,0.077 -0.9,0.143 -1.391,0.196 -0.491,0.055 -0.966,0.126 -1.424,0.213 -0.458,0.087 -0.895,0.196 -1.309,0.327 -0.415,0.131 -0.775,0.311 -1.08,0.54 -0.306,0.229 -0.552,0.519 -0.736,0.867 -0.186,0.35 -0.278,0.785 -0.278,1.309 0,0.458 0.093,0.846 0.278,1.162 0.185,0.316 0.426,0.572 0.72,0.769 0.295,0.196 0.639,0.339 1.031,0.426 0.392,0.087 0.807,0.131 1.243,0.131 0.916,0 1.701,-0.125 2.356,-0.376 0.654,-0.251 1.188,-0.567 1.604,-0.949 0.414,-0.382 0.72,-0.796 0.916,-1.244 0.196,-0.446 0.294,-0.867 0.294,-1.26 l 0,-2.847 z"
           id="path4245"
           style="fill:#6cbec3" /><path
           d="m 798.13,365.857 2.781,0 0,8.737 0.065,0 c 0.459,-0.938 1.179,-1.62 2.16,-2.046 0.981,-0.425 2.062,-0.638 3.239,-0.638 1.31,0 2.449,0.24 3.42,0.72 0.971,0.48 1.778,1.129 2.422,1.947 0.643,0.817 1.129,1.762 1.456,2.83 0.327,1.069 0.49,2.204 0.49,3.403 0,1.2 -0.158,2.335 -0.474,3.403 -0.316,1.069 -0.797,2.002 -1.44,2.798 -0.644,0.797 -1.451,1.43 -2.421,1.898 -0.972,0.469 -2.101,0.703 -3.388,0.703 -0.437,0 -0.905,-0.044 -1.407,-0.131 -0.502,-0.087 -1.003,-0.234 -1.505,-0.441 -0.502,-0.207 -0.977,-0.479 -1.424,-0.818 -0.447,-0.338 -0.823,-0.758 -1.129,-1.26 l -0.065,0 0,2.258 -2.781,0 0,-23.363 z m 12.778,12.452 c -0.207,-0.753 -0.523,-1.424 -0.948,-2.013 -0.426,-0.589 -0.972,-1.058 -1.637,-1.407 -0.666,-0.349 -1.445,-0.523 -2.34,-0.523 -0.938,0 -1.734,0.186 -2.389,0.557 -0.655,0.371 -1.189,0.856 -1.604,1.456 -0.415,0.6 -0.715,1.281 -0.899,2.045 -0.186,0.764 -0.278,1.538 -0.278,2.323 0,0.829 0.098,1.631 0.294,2.405 0.196,0.774 0.508,1.456 0.933,2.045 0.426,0.59 0.977,1.063 1.653,1.424 0.676,0.36 1.494,0.54 2.454,0.54 0.938,0 1.734,-0.186 2.389,-0.557 0.654,-0.37 1.178,-0.861 1.57,-1.473 0.393,-0.61 0.677,-1.309 0.852,-2.094 0.174,-0.785 0.262,-1.593 0.262,-2.422 0,-0.785 -0.105,-1.554 -0.312,-2.306 z"
           id="path4247"
           style="fill:#6cbec3" /><path
           d="m 818.353,377.294 c 0.35,-1.08 0.873,-2.018 1.571,-2.814 0.698,-0.796 1.555,-1.423 2.568,-1.882 1.015,-0.458 2.198,-0.687 3.551,-0.687 1.33,0 2.509,0.229 3.534,0.687 1.025,0.459 1.887,1.086 2.585,1.882 0.698,0.797 1.222,1.734 1.571,2.814 0.349,1.08 0.523,2.241 0.523,3.485 0,1.243 -0.175,2.399 -0.523,3.469 -0.35,1.068 -0.873,2.001 -1.571,2.798 -0.698,0.796 -1.56,1.423 -2.585,1.881 -1.025,0.459 -2.204,0.688 -3.534,0.688 -1.353,0 -2.536,-0.229 -3.551,-0.688 -1.014,-0.458 -1.87,-1.085 -2.568,-1.881 -0.698,-0.797 -1.222,-1.729 -1.571,-2.798 -0.349,-1.069 -0.523,-2.226 -0.523,-3.469 -0.001,-1.244 0.174,-2.405 0.523,-3.485 z m 2.831,6.218 c 0.272,0.796 0.648,1.462 1.129,1.996 0.479,0.534 1.042,0.943 1.686,1.227 0.643,0.284 1.325,0.426 2.045,0.426 0.72,0 1.401,-0.142 2.045,-0.426 0.644,-0.283 1.205,-0.692 1.686,-1.227 0.479,-0.534 0.856,-1.2 1.129,-1.996 0.272,-0.797 0.409,-1.707 0.409,-2.732 0,-1.025 -0.137,-1.937 -0.409,-2.732 -0.272,-0.797 -0.649,-1.467 -1.129,-2.013 -0.48,-0.545 -1.042,-0.96 -1.686,-1.243 -0.644,-0.284 -1.325,-0.426 -2.045,-0.426 -0.72,0 -1.402,0.142 -2.045,0.426 -0.644,0.283 -1.206,0.698 -1.686,1.243 -0.48,0.546 -0.856,1.216 -1.129,2.013 -0.273,0.796 -0.409,1.707 -0.409,2.732 0,1.025 0.135,1.935 0.409,2.732 z"
           id="path4249"
           style="fill:#6cbec3" /><path
           d="m 838.739,372.304 2.618,0 0,3.566 0.065,0 c 0.676,-1.374 1.505,-2.389 2.486,-3.043 0.982,-0.654 2.226,-0.96 3.73,-0.916 l 0,2.945 c -1.112,0 -2.062,0.152 -2.847,0.458 -0.785,0.306 -1.418,0.752 -1.897,1.342 -0.48,0.589 -0.83,1.309 -1.048,2.159 -0.218,0.85 -0.327,1.812 -0.327,2.88 l 0,7.526 -2.781,0 0,-16.917 z"
           id="path4251"
           style="fill:#6cbec3" /><path
           d="m 866.03,389.156 c -0.502,0.306 -1.168,0.458 -1.996,0.458 -0.721,0 -1.293,-0.207 -1.719,-0.622 -0.425,-0.414 -0.638,-1.079 -0.638,-1.996 -0.764,0.917 -1.652,1.582 -2.667,1.996 -1.015,0.415 -2.11,0.622 -3.289,0.622 -0.764,0 -1.488,-0.087 -2.176,-0.262 -0.688,-0.175 -1.282,-0.452 -1.783,-0.834 -0.502,-0.382 -0.9,-0.873 -1.194,-1.473 -0.295,-0.601 -0.442,-1.325 -0.442,-2.177 0,-0.959 0.164,-1.745 0.491,-2.355 0.327,-0.61 0.758,-1.102 1.293,-1.473 0.534,-0.371 1.145,-0.66 1.832,-0.867 0.687,-0.207 1.391,-0.377 2.11,-0.508 0.764,-0.152 1.489,-0.267 2.177,-0.343 0.687,-0.076 1.292,-0.186 1.815,-0.328 0.524,-0.142 0.938,-0.349 1.244,-0.621 0.305,-0.272 0.458,-0.671 0.458,-1.194 0,-0.61 -0.114,-1.102 -0.344,-1.473 -0.229,-0.371 -0.523,-0.654 -0.884,-0.851 -0.359,-0.196 -0.764,-0.328 -1.21,-0.394 -0.448,-0.065 -0.89,-0.098 -1.326,-0.098 -1.178,0 -2.159,0.224 -2.944,0.671 -0.786,0.447 -1.211,1.292 -1.276,2.536 l -2.781,0 c 0.043,-1.047 0.262,-1.931 0.654,-2.65 0.393,-0.721 0.916,-1.304 1.57,-1.751 0.654,-0.447 1.407,-0.77 2.258,-0.966 0.851,-0.196 1.745,-0.294 2.684,-0.294 0.764,0 1.521,0.055 2.274,0.163 0.753,0.109 1.434,0.333 2.045,0.671 0.61,0.339 1.102,0.813 1.473,1.424 0.371,0.611 0.557,1.407 0.557,2.389 l 0,8.704 c 0,0.655 0.037,1.135 0.114,1.44 0.076,0.306 0.332,0.458 0.769,0.458 0.263,0 0.546,-0.055 0.852,-0.164 l 0,2.162 z m -4.516,-8.672 c -0.262,0.196 -0.589,0.35 -0.981,0.458 -0.393,0.109 -0.808,0.202 -1.243,0.278 -0.437,0.077 -0.9,0.143 -1.391,0.196 -0.491,0.055 -0.966,0.126 -1.424,0.213 -0.458,0.087 -0.895,0.196 -1.309,0.327 -0.415,0.131 -0.775,0.311 -1.08,0.54 -0.306,0.229 -0.552,0.519 -0.736,0.867 -0.186,0.35 -0.278,0.785 -0.278,1.309 0,0.458 0.093,0.846 0.278,1.162 0.185,0.316 0.426,0.572 0.72,0.769 0.295,0.196 0.639,0.339 1.031,0.426 0.392,0.087 0.807,0.131 1.243,0.131 0.916,0 1.701,-0.125 2.356,-0.376 0.654,-0.251 1.188,-0.567 1.604,-0.949 0.414,-0.382 0.72,-0.796 0.916,-1.244 0.196,-0.446 0.294,-0.867 0.294,-1.26 l 0,-2.847 z"
           id="path4253"
           style="fill:#6cbec3" /><path
           d="m 873.786,372.304 3.37,0 0,2.454 -3.37,0 0,10.504 c 0,0.328 0.026,0.59 0.081,0.786 0.055,0.196 0.158,0.349 0.312,0.458 0.152,0.109 0.365,0.18 0.638,0.213 0.272,0.032 0.627,0.049 1.063,0.049 l 1.276,0 0,2.454 -2.127,0 c -0.72,0 -1.337,-0.049 -1.849,-0.147 -0.513,-0.098 -0.928,-0.278 -1.244,-0.54 -0.316,-0.262 -0.551,-0.632 -0.703,-1.112 -0.153,-0.479 -0.229,-1.112 -0.229,-1.898 l 0,-10.766 -2.879,0 0,-2.454 2.879,0 0,-5.072 2.782,0 0,5.071 z"
           id="path4255"
           style="fill:#6cbec3" /><path
           d="m 884.485,369.261 -2.781,0 0,-3.403 2.781,0 0,3.403 z m -2.781,3.043 2.781,0 0,16.918 -2.781,0 0,-16.918 z"
           id="path4257"
           style="fill:#6cbec3" /><path
           d="m 889.721,377.294 c 0.35,-1.08 0.873,-2.018 1.571,-2.814 0.698,-0.796 1.555,-1.423 2.568,-1.882 1.015,-0.458 2.198,-0.687 3.551,-0.687 1.33,0 2.509,0.229 3.534,0.687 1.025,0.459 1.887,1.086 2.585,1.882 0.698,0.797 1.222,1.734 1.571,2.814 0.349,1.08 0.523,2.241 0.523,3.485 0,1.243 -0.175,2.399 -0.523,3.469 -0.35,1.068 -0.873,2.001 -1.571,2.798 -0.698,0.796 -1.56,1.423 -2.585,1.881 -1.025,0.459 -2.204,0.688 -3.534,0.688 -1.353,0 -2.536,-0.229 -3.551,-0.688 -1.014,-0.458 -1.87,-1.085 -2.568,-1.881 -0.698,-0.797 -1.222,-1.729 -1.571,-2.798 -0.349,-1.069 -0.523,-2.226 -0.523,-3.469 -10e-4,-1.244 0.174,-2.405 0.523,-3.485 z m 2.831,6.218 c 0.272,0.796 0.648,1.462 1.129,1.996 0.479,0.534 1.042,0.943 1.686,1.227 0.643,0.284 1.325,0.426 2.045,0.426 0.72,0 1.401,-0.142 2.045,-0.426 0.644,-0.283 1.205,-0.692 1.686,-1.227 0.479,-0.534 0.856,-1.2 1.129,-1.996 0.272,-0.797 0.409,-1.707 0.409,-2.732 0,-1.025 -0.137,-1.937 -0.409,-2.732 -0.272,-0.797 -0.649,-1.467 -1.129,-2.013 -0.48,-0.545 -1.042,-0.96 -1.686,-1.243 -0.644,-0.284 -1.325,-0.426 -2.045,-0.426 -0.72,0 -1.402,0.142 -2.045,0.426 -0.644,0.283 -1.206,0.698 -1.686,1.243 -0.48,0.546 -0.856,1.216 -1.129,2.013 -0.273,0.796 -0.409,1.707 -0.409,2.732 0,1.025 0.135,1.935 0.409,2.732 z"
           id="path4259"
           style="fill:#6cbec3" /><path
           d="m 910.206,372.304 2.617,0 0,2.684 0.065,0 c 0.589,-1.048 1.347,-1.821 2.274,-2.324 0.927,-0.501 2.001,-0.752 3.224,-0.752 1.112,0 2.039,0.152 2.781,0.458 0.741,0.306 1.342,0.731 1.8,1.276 0.458,0.545 0.78,1.194 0.966,1.947 0.185,0.752 0.277,1.587 0.277,2.503 l 0,11.126 -2.781,0 0,-11.453 c 0,-1.047 -0.306,-1.876 -0.916,-2.487 -0.611,-0.61 -1.451,-0.916 -2.52,-0.916 -0.852,0 -1.587,0.131 -2.209,0.393 -0.622,0.262 -1.141,0.633 -1.555,1.112 -0.414,0.48 -0.726,1.042 -0.933,1.686 -0.207,0.644 -0.311,1.348 -0.311,2.11 l 0,9.556 -2.781,0 0,-16.919 z"
           id="path4261"
           style="fill:#6cbec3" /><path
           d="m 940.54,363.501 2.226,0 0,32.724 -2.226,0 0,-32.724 z"
           id="path4263"
           style="fill:#99083c" /><path
           d="m 975.978,372.893 c -0.175,-0.84 -0.458,-1.575 -0.851,-2.205 -0.393,-0.63 -0.879,-1.154 -1.456,-1.574 -0.578,-0.42 -1.228,-0.735 -1.947,-0.945 -0.72,-0.209 -1.483,-0.314 -2.291,-0.314 -1.396,0 -2.591,0.264 -3.583,0.791 -0.993,0.526 -1.811,1.235 -2.454,2.125 -0.643,0.89 -1.118,1.904 -1.424,3.047 -0.306,1.143 -0.458,2.328 -0.458,3.559 0,1.339 0.152,2.607 0.458,3.805 0.306,1.198 0.78,2.24 1.424,3.131 0.644,0.89 1.467,1.598 2.471,2.125 1.003,0.526 2.203,0.79 3.6,0.79 1.025,0 1.936,-0.17 2.732,-0.512 0.796,-0.342 1.483,-0.815 2.062,-1.421 0.579,-0.606 1.031,-1.327 1.358,-2.164 0.327,-0.838 0.523,-1.74 0.589,-2.71 l 3.108,0 c -0.306,2.924 -1.325,5.215 -3.06,6.872 -1.734,1.658 -4.085,2.487 -7.052,2.487 -1.812,0 -3.393,-0.316 -4.745,-0.949 -1.352,-0.633 -2.477,-1.494 -3.37,-2.585 -0.896,-1.091 -1.566,-2.378 -2.013,-3.861 -0.447,-1.483 -0.671,-3.076 -0.671,-4.778 0,-1.701 0.239,-3.299 0.72,-4.794 0.479,-1.494 1.184,-2.798 2.11,-3.91 0.928,-1.112 2.078,-1.99 3.453,-2.635 1.374,-0.643 2.966,-0.965 4.777,-0.965 1.222,0 2.378,0.164 3.469,0.491 1.091,0.327 2.062,0.807 2.912,1.439 0.85,0.632 1.56,1.424 2.127,2.372 0.567,0.949 0.938,2.046 1.113,3.289 l -3.108,0 z"
           id="path4265"
           style="fill:#6cbec3" /><path
           d="m 983.635,377.294 c 0.35,-1.08 0.873,-2.018 1.571,-2.814 0.698,-0.796 1.555,-1.423 2.568,-1.882 1.015,-0.458 2.198,-0.687 3.551,-0.687 1.33,0 2.509,0.229 3.534,0.687 1.025,0.459 1.887,1.086 2.585,1.882 0.698,0.797 1.222,1.734 1.571,2.814 0.349,1.08 0.523,2.241 0.523,3.485 0,1.243 -0.175,2.399 -0.523,3.469 -0.35,1.068 -0.873,2.001 -1.571,2.798 -0.698,0.796 -1.56,1.423 -2.585,1.881 -1.025,0.459 -2.204,0.688 -3.534,0.688 -1.353,0 -2.536,-0.229 -3.551,-0.688 -1.014,-0.458 -1.87,-1.085 -2.568,-1.881 -0.698,-0.797 -1.222,-1.729 -1.571,-2.798 -0.349,-1.069 -0.523,-2.226 -0.523,-3.469 -10e-4,-1.244 0.174,-2.405 0.523,-3.485 z m 2.831,6.218 c 0.272,0.796 0.648,1.462 1.129,1.996 0.479,0.534 1.042,0.943 1.686,1.227 0.643,0.284 1.325,0.426 2.045,0.426 0.72,0 1.401,-0.142 2.045,-0.426 0.644,-0.283 1.205,-0.692 1.686,-1.227 0.479,-0.534 0.856,-1.2 1.129,-1.996 0.272,-0.797 0.409,-1.707 0.409,-2.732 0,-1.025 -0.137,-1.937 -0.409,-2.732 -0.272,-0.797 -0.649,-1.467 -1.129,-2.013 -0.48,-0.545 -1.042,-0.96 -1.686,-1.243 -0.644,-0.284 -1.325,-0.426 -2.045,-0.426 -0.72,0 -1.402,0.142 -2.045,0.426 -0.644,0.283 -1.206,0.698 -1.686,1.243 -0.48,0.546 -0.856,1.216 -1.129,2.013 -0.273,0.796 -0.409,1.707 -0.409,2.732 0,1.025 0.135,1.935 0.409,2.732 z"
           id="path4267"
           style="fill:#6cbec3" /><path
           d="m 1004.12,372.304 2.617,0 0,2.487 0.065,0 c 1.266,-1.92 3.087,-2.88 5.465,-2.88 1.048,0 1.996,0.218 2.848,0.654 0.851,0.437 1.45,1.178 1.8,2.226 0.566,-0.917 1.319,-1.625 2.258,-2.128 0.938,-0.501 1.952,-0.752 3.043,-0.752 0.851,0 1.62,0.093 2.307,0.278 0.688,0.186 1.276,0.474 1.768,0.867 0.491,0.393 0.872,0.899 1.146,1.521 0.272,0.621 0.409,1.369 0.409,2.241 l 0,12.402 -2.782,0 0,-11.094 c 0,-0.523 -0.044,-1.014 -0.131,-1.472 -0.087,-0.459 -0.251,-0.856 -0.49,-1.195 -0.24,-0.338 -0.573,-0.604 -0.998,-0.801 -0.426,-0.197 -0.977,-0.295 -1.653,-0.295 -1.353,0 -2.427,0.393 -3.223,1.178 -0.797,0.785 -1.194,1.833 -1.194,3.142 l 0,10.537 -2.782,0 0,-11.094 c 0,-0.545 -0.049,-1.047 -0.146,-1.505 -0.099,-0.458 -0.268,-0.855 -0.508,-1.194 -0.24,-0.338 -0.567,-0.6 -0.981,-0.785 -0.415,-0.186 -0.928,-0.278 -1.538,-0.278 -0.829,0 -1.527,0.163 -2.095,0.491 -0.567,0.327 -1.03,0.72 -1.391,1.178 -0.359,0.458 -0.621,0.933 -0.785,1.424 -0.163,0.49 -0.245,0.899 -0.245,1.227 l 0,10.537 -2.781,0 0,-16.917 z"
           id="path4269"
           style="fill:#6cbec3" /><path
           d="m 1033.342,372.304 2.617,0 0,2.487 0.065,0 c 1.266,-1.92 3.087,-2.88 5.465,-2.88 1.048,0 1.996,0.218 2.848,0.654 0.851,0.437 1.45,1.178 1.8,2.226 0.566,-0.917 1.319,-1.625 2.258,-2.128 0.938,-0.501 1.952,-0.752 3.043,-0.752 0.851,0 1.62,0.093 2.307,0.278 0.688,0.186 1.276,0.474 1.768,0.867 0.491,0.393 0.872,0.899 1.146,1.521 0.272,0.621 0.409,1.369 0.409,2.241 l 0,12.402 -2.782,0 0,-11.094 c 0,-0.523 -0.044,-1.014 -0.131,-1.472 -0.087,-0.459 -0.251,-0.856 -0.49,-1.195 -0.24,-0.338 -0.573,-0.604 -0.998,-0.801 -0.426,-0.197 -0.977,-0.295 -1.653,-0.295 -1.353,0 -2.427,0.393 -3.223,1.178 -0.797,0.785 -1.194,1.833 -1.194,3.142 l 0,10.537 -2.782,0 0,-11.094 c 0,-0.545 -0.049,-1.047 -0.146,-1.505 -0.099,-0.458 -0.268,-0.855 -0.508,-1.194 -0.24,-0.338 -0.567,-0.6 -0.981,-0.785 -0.415,-0.186 -0.928,-0.278 -1.538,-0.278 -0.829,0 -1.527,0.163 -2.095,0.491 -0.567,0.327 -1.03,0.72 -1.391,1.178 -0.359,0.458 -0.621,0.933 -0.785,1.424 -0.163,0.49 -0.245,0.899 -0.245,1.227 l 0,10.537 -2.781,0 0,-16.917 z"
           id="path4271"
           style="fill:#6cbec3" /><path
           d="m 1076.569,389.222 -2.617,0 0,-2.684 -0.065,0 c -0.589,1.048 -1.348,1.822 -2.274,2.323 -0.928,0.502 -2.002,0.753 -3.224,0.753 -1.112,0 -2.04,-0.152 -2.781,-0.458 -0.742,-0.306 -1.342,-0.73 -1.8,-1.276 -0.458,-0.545 -0.78,-1.194 -0.966,-1.947 -0.186,-0.752 -0.277,-1.587 -0.277,-2.503 l 0,-11.126 2.781,0 0,11.453 c 0,1.047 0.305,1.877 0.916,2.487 0.61,0.61 1.45,0.916 2.52,0.916 0.852,0 1.587,-0.131 2.209,-0.393 0.622,-0.262 1.14,-0.633 1.555,-1.112 0.414,-0.48 0.725,-1.042 0.933,-1.686 0.207,-0.644 0.311,-1.347 0.311,-2.111 l 0,-9.555 2.781,0 0,16.919 z"
           id="path4273"
           style="fill:#6cbec3" /><path
           d="m 1082.067,372.304 2.617,0 0,2.684 0.065,0 c 0.589,-1.048 1.347,-1.821 2.274,-2.324 0.927,-0.501 2.001,-0.752 3.224,-0.752 1.112,0 2.039,0.152 2.781,0.458 0.741,0.306 1.342,0.731 1.8,1.276 0.458,0.545 0.78,1.194 0.966,1.947 0.185,0.752 0.277,1.587 0.277,2.503 l 0,11.126 -2.781,0 0,-11.453 c 0,-1.047 -0.306,-1.876 -0.916,-2.487 -0.611,-0.61 -1.451,-0.916 -2.52,-0.916 -0.852,0 -1.587,0.131 -2.209,0.393 -0.622,0.262 -1.141,0.633 -1.555,1.112 -0.414,0.48 -0.726,1.042 -0.933,1.686 -0.207,0.644 -0.311,1.348 -0.311,2.11 l 0,9.556 -2.781,0 0,-16.919 z"
           id="path4275"
           style="fill:#6cbec3" /><path
           d="m 1104.515,369.261 -2.781,0 0,-3.403 2.781,0 0,3.403 z m -2.782,3.043 2.781,0 0,16.918 -2.781,0 0,-16.918 z"
           id="path4277"
           style="fill:#6cbec3" /><path
           d="m 1114.005,372.304 3.37,0 0,2.454 -3.37,0 0,10.504 c 0,0.328 0.026,0.59 0.081,0.786 0.055,0.196 0.158,0.349 0.312,0.458 0.152,0.109 0.365,0.18 0.638,0.213 0.272,0.032 0.627,0.049 1.063,0.049 l 1.276,0 0,2.454 -2.127,0 c -0.72,0 -1.337,-0.049 -1.849,-0.147 -0.513,-0.098 -0.928,-0.278 -1.244,-0.54 -0.316,-0.262 -0.551,-0.632 -0.703,-1.112 -0.153,-0.479 -0.229,-1.112 -0.229,-1.898 l 0,-10.766 -2.879,0 0,-2.454 2.879,0 0,-5.072 2.782,0 0,5.071 z"
           id="path4279"
           style="fill:#6cbec3" /><path
           d="m 1128.435,391.479 c -0.329,0.829 -0.652,1.527 -0.97,2.095 -0.317,0.566 -0.663,1.03 -1.036,1.391 -0.372,0.359 -0.8,0.621 -1.282,0.785 -0.481,0.164 -1.03,0.245 -1.644,0.245 -0.329,0 -0.658,-0.021 -0.987,-0.065 -0.328,-0.044 -0.646,-0.12 -0.952,-0.229 l 0,-2.553 c 0.262,0.087 0.528,0.175 0.801,0.262 0.273,0.087 0.551,0.131 0.835,0.131 0.567,0 1.025,-0.131 1.374,-0.393 0.349,-0.262 0.655,-0.644 0.917,-1.146 l 1.145,-2.88 -6.708,-16.819 3.142,0 4.941,13.842 0.065,0 4.745,-13.842 2.944,0 -7.33,19.176 z"
           id="path4281"
           style="fill:#6cbec3" /></g></g></g></svg>