<?xml version="1.0" encoding="UTF-8" standalone="no"?>
<!-- Generator: Adobe Illustrator 16.0.0, SVG Export Plug-In . SVG Version: 6.00 Build 0)  -->

<svg
   xmlns:dc="http://purl.org/dc/elements/1.1/"
   xmlns:cc="http://creativecommons.org/ns#"
   xmlns:rdf="http://www.w3.org/1999/02/22-rdf-syntax-ns#"
   xmlns:svg="http://www.w3.org/2000/svg"
   xmlns="http://www.w3.org/2000/svg"
   xmlns:sodipodi="http://sodipodi.sourceforge.net/DTD/sodipodi-0.dtd"
   xmlns:inkscape="http://www.inkscape.org/namespaces/inkscape"
   version="1.1"
   x="0px"
   y="0px"
   width="726.9715"
   height="355.58426"
   viewBox="0 0 726.9715 355.58426"
   enable-background="new 0 0 792 612"
   xml:space="preserve"
   id="svg2"
   inkscape:version="0.91 r13725"
   sodipodi:docname="Primary Fusion Studio Logo-01.svg"><metadata
     id="metadata286"><rdf:RDF><cc:Work
         rdf:about=""><dc:format>image/svg+xml</dc:format><dc:type
           rdf:resource="http://purl.org/dc/dcmitype/StillImage" /><dc:title></dc:title></cc:Work></rdf:RDF></metadata><defs
     id="defs284" /><sodipodi:namedview
     pagecolor="#ffffff"
     bordercolor="#666666"
     borderopacity="1"
     objecttolerance="10"
     gridtolerance="10"
     guidetolerance="10"
     inkscape:pageopacity="0"
     inkscape:pageshadow="2"
     inkscape:window-width="1920"
     inkscape:window-height="1017"
     id="namedview282"
     showgrid="false"
     fit-margin-top="0"
     fit-margin-left="0"
     fit-margin-right="10"
     fit-margin-bottom="40"
     inkscape:zoom="1.11"
     inkscape:cx="355.96524"
     inkscape:cy="137.90094"
     inkscape:window-x="1072"
     inkscape:window-y="-8"
     inkscape:window-maximized="1"
     inkscape:current-layer="svg2" /><g
     id="g3614"
     transform="translate(-40.034757,-124.35275)"><g
       id="Circle_Option_2"><g
         id="dashed_lines"><g
           id="g6"><g
             id="g8"><line
               id="line10"
               y2="159.701"
               x2="271.51901"
               y1="155.701"
               x1="271.51901"
               stroke-miterlimit="10"
               style="fill:none;stroke:#367db2;stroke-width:2;stroke-linecap:round;stroke-miterlimit:10" /><line
               id="line12"
               y2="429.30701"
               x2="271.51901"
               y1="167.51601"
               x1="271.51901"
               stroke-miterlimit="10"
               style="fill:none;stroke:#367db2;stroke-width:2;stroke-linecap:round;stroke-miterlimit:10;stroke-dasharray:7.8146, 7.8146" /><line
               id="line14"
               y2="437.21399"
               x2="271.51901"
               y1="433.21399"
               x1="271.51901"
               stroke-miterlimit="10"
               style="fill:none;stroke:#367db2;stroke-width:2;stroke-linecap:round;stroke-miterlimit:10" /></g></g><g
           id="g16"><g
             id="g18"><line
               id="line20"
               y2="303.91101"
               x2="384.76501"
               y1="303.91101"
               x1="388.76501"
               stroke-miterlimit="10"
               style="fill:none;stroke:#367db2;stroke-width:2;stroke-linecap:round;stroke-miterlimit:10" /><line
               id="line22"
               y2="303.91101"
               x2="49"
               y1="303.91101"
               x1="376.86499"
               stroke-miterlimit="10"
               style="fill:none;stroke:#367db2;stroke-width:2;stroke-linecap:round;stroke-miterlimit:10;stroke-dasharray:7.9004, 7.9004" /><line
               id="line24"
               y2="303.91101"
               x2="41.049"
               y1="303.91101"
               x1="45.049"
               stroke-miterlimit="10"
               style="fill:none;stroke:#367db2;stroke-width:2;stroke-linecap:round;stroke-miterlimit:10" /></g></g><g
           id="g26"><g
             id="g28"><line
               id="line30"
               y2="303.91101"
               x2="751.992"
               y1="303.91101"
               x1="755.992"
               stroke-miterlimit="10"
               style="fill:none;stroke:#367db2;stroke-width:2;stroke-linecap:round;stroke-miterlimit:10" /><line
               id="line32"
               y2="303.91101"
               x2="416.22601"
               y1="303.91101"
               x1="744.09198"
               stroke-miterlimit="10"
               style="fill:none;stroke:#367db2;stroke-width:2;stroke-linecap:round;stroke-miterlimit:10;stroke-dasharray:7.9004, 7.9004" /><line
               id="line34"
               y2="303.91101"
               x2="408.27499"
               y1="303.91101"
               x1="412.27499"
               stroke-miterlimit="10"
               style="fill:none;stroke:#367db2;stroke-width:2;stroke-linecap:round;stroke-miterlimit:10" /></g></g><g
           id="g36"><g
             id="g38"><line
               id="line40"
               y2="129.367"
               x2="505.93701"
               y1="125.367"
               x1="505.93701"
               stroke-miterlimit="10"
               style="fill:none;stroke:#367db2;stroke-width:2;stroke-linecap:round;stroke-miterlimit:10" /><line
               id="line42"
               y2="428.198"
               x2="505.93701"
               y1="137.554"
               x1="505.93701"
               stroke-miterlimit="10"
               style="fill:none;stroke:#367db2;stroke-width:2;stroke-linecap:round;stroke-miterlimit:10;stroke-dasharray:8.1872, 8.1872" /><line
               id="line44"
               y2="436.29199"
               x2="505.93701"
               y1="432.29199"
               x1="505.93701"
               stroke-miterlimit="10"
               style="fill:none;stroke:#367db2;stroke-width:2;stroke-linecap:round;stroke-miterlimit:10" /></g></g></g><g
         id="big_circles_copy"><linearGradient
           y2="178.68021"
           x2="277.51709"
           y1="401.17679"
           x1="277.51709"
           gradientUnits="userSpaceOnUse"
           id="SVGID_1_"><stop
             id="stop48"
             style="stop-color:#367DB2"
             offset="0" /><stop
             id="stop50"
             style="stop-color:#306B9D"
             offset="0.1174" /><stop
             id="stop52"
             style="stop-color:#214371"
             offset="0.3574" /><stop
             id="stop54"
             style="stop-color:#152553"
             offset="0.5299" /></linearGradient><path
           id="path56"
           d="m 388.765,289.929 c 0,61.438 -49.809,111.248 -111.248,111.248 -61.441,0 -111.249,-49.811 -111.249,-111.248 0,-61.441 49.808,-111.249 111.249,-111.249 61.44,0 111.248,49.807 111.248,111.249 z"
           inkscape:connector-curvature="0"
           style="opacity:0.4;fill:url(#SVGID_1_)" /><linearGradient
           y2="217.1382"
           x2="155.2998"
           y1="390.6846"
           x1="155.2998"
           gradientUnits="userSpaceOnUse"
           id="SVGID_2_"><stop
             id="stop59"
             style="stop-color:#367DB2"
             offset="0" /><stop
             id="stop61"
             style="stop-color:#306B9D"
             offset="0.1174" /><stop
             id="stop63"
             style="stop-color:#214371"
             offset="0.3574" /><stop
             id="stop65"
             style="stop-color:#152553"
             offset="0.5299" /></linearGradient><circle
           id="circle67"
           r="86.773003"
           cy="303.91199"
           cx="155.3"
           style="opacity:0.4;fill:url(#SVGID_2_)" /><linearGradient
           y2="208.74409"
           x2="637.00391"
           y1="382.29099"
           x1="637.00391"
           gradientUnits="userSpaceOnUse"
           id="SVGID_3_"><stop
             id="stop70"
             style="stop-color:#367DB2"
             offset="0" /><stop
             id="stop72"
             style="stop-color:#306B9D"
             offset="0.1174" /><stop
             id="stop74"
             style="stop-color:#214371"
             offset="0.3574" /><stop
             id="stop76"
             style="stop-color:#152553"
             offset="0.5299" /></linearGradient><circle
           id="circle78"
           r="86.773003"
           cy="295.51801"
           cx="637.00403"
           style="opacity:0.4;fill:url(#SVGID_3_)" /><linearGradient
           y2="204.9863"
           x2="368.2876"
           y1="378.5332"
           x1="368.2876"
           gradientUnits="userSpaceOnUse"
           id="SVGID_4_"><stop
             id="stop81"
             style="stop-color:#367DB2"
             offset="0" /><stop
             id="stop83"
             style="stop-color:#306B9D"
             offset="0.1174" /><stop
             id="stop85"
             style="stop-color:#214371"
             offset="0.3574" /><stop
             id="stop87"
             style="stop-color:#152553"
             offset="0.5299" /></linearGradient><circle
           id="circle89"
           r="86.773003"
           cy="291.759"
           cx="368.28699"
           style="opacity:0.4;fill:url(#SVGID_4_)" /><linearGradient
           y2="166.9751"
           x2="505.93549"
           y1="390.6846"
           x1="505.93549"
           gradientUnits="userSpaceOnUse"
           id="SVGID_5_"><stop
             id="stop92"
             style="stop-color:#367DB2"
             offset="0" /><stop
             id="stop94"
             style="stop-color:#306B9D"
             offset="0.1174" /><stop
             id="stop96"
             style="stop-color:#214371"
             offset="0.3574" /><stop
             id="stop98"
             style="stop-color:#152553"
             offset="0.5299" /></linearGradient><path
           id="path100"
           d="m 617.79,278.83 c 0,61.773 -50.079,111.855 -111.854,111.855 -61.773,0 -111.854,-50.082 -111.854,-111.855 0,-61.774 50.081,-111.855 111.854,-111.855 61.775,0 111.854,50.081 111.854,111.855 z"
           inkscape:connector-curvature="0"
           style="opacity:0.4;fill:url(#SVGID_5_)" /></g><g
         id="small_circles_copy"><linearGradient
           y2="224.43851"
           x2="172.7524"
           y1="363.08011"
           x1="172.7524"
           gradientUnits="userSpaceOnUse"
           id="SVGID_6_"><stop
             id="stop104"
             style="stop-color:#367DB2"
             offset="0" /><stop
             id="stop106"
             style="stop-color:#306B9D"
             offset="0.1174" /><stop
             id="stop108"
             style="stop-color:#214371"
             offset="0.3575" /><stop
             id="stop110"
             style="stop-color:#152553"
             offset="0.53" /></linearGradient><circle
           id="circle112"
           r="69.32"
           cy="293.759"
           cx="172.752"
           style="opacity:0.9;fill:url(#SVGID_6_)" /><linearGradient
           y2="224.43851"
           x2="370.15771"
           y1="363.08011"
           x1="370.15771"
           gradientUnits="userSpaceOnUse"
           id="SVGID_7_"><stop
             id="stop115"
             style="stop-color:#367DB2"
             offset="0" /><stop
             id="stop117"
             style="stop-color:#306B9D"
             offset="0.1174" /><stop
             id="stop119"
             style="stop-color:#214371"
             offset="0.3574" /><stop
             id="stop121"
             style="stop-color:#152553"
             offset="0.5299" /></linearGradient><circle
           id="circle123"
           r="69.320999"
           cy="293.759"
           cx="370.15799"
           style="opacity:0.9;fill:url(#SVGID_7_)" /><linearGradient
           y2="224.43851"
           x2="433.6152"
           y1="363.08011"
           x1="433.6152"
           gradientUnits="userSpaceOnUse"
           id="SVGID_8_"><stop
             id="stop126"
             style="stop-color:#367DB2"
             offset="0" /><stop
             id="stop128"
             style="stop-color:#306B9D"
             offset="0.1174" /><stop
             id="stop130"
             style="stop-color:#214371"
             offset="0.3574" /><stop
             id="stop132"
             style="stop-color:#152553"
             offset="0.5299" /></linearGradient><circle
           id="circle134"
           r="69.32"
           cy="293.759"
           cx="433.61499"
           style="opacity:0.9;fill:url(#SVGID_8_)" /><linearGradient
           y2="210.74409"
           x2="505.93549"
           y1="373.11331"
           x1="505.93549"
           gradientUnits="userSpaceOnUse"
           id="SVGID_9_"><stop
             id="stop137"
             style="stop-color:#367DB2"
             offset="0" /><stop
             id="stop139"
             style="stop-color:#306B9D"
             offset="0.1174" /><stop
             id="stop141"
             style="stop-color:#214371"
             offset="0.3574" /><stop
             id="stop143"
             style="stop-color:#152553"
             offset="0.5299" /></linearGradient><circle
           id="circle145"
           r="81.184998"
           cy="291.92899"
           cx="505.936"
           style="opacity:0.9;fill:url(#SVGID_9_)" /><linearGradient
           y2="224.43851"
           x2="617.55267"
           y1="363.08011"
           x1="617.55267"
           gradientUnits="userSpaceOnUse"
           id="SVGID_10_"><stop
             id="stop148"
             style="stop-color:#367DB2"
             offset="0" /><stop
             id="stop150"
             style="stop-color:#306B9D"
             offset="0.1174" /><stop
             id="stop152"
             style="stop-color:#214371"
             offset="0.3574" /><stop
             id="stop154"
             style="stop-color:#152553"
             offset="0.5299" /></linearGradient><circle
           id="circle156"
           r="69.320999"
           cy="293.759"
           cx="617.552"
           style="opacity:0.9;fill:url(#SVGID_10_)" /><linearGradient
           y2="224.43851"
           x2="268.57761"
           y1="363.08011"
           x1="268.57761"
           gradientUnits="userSpaceOnUse"
           id="SVGID_11_"><stop
             id="stop159"
             style="stop-color:#367DB2"
             offset="0" /><stop
             id="stop161"
             style="stop-color:#306B9D"
             offset="0.1174" /><stop
             id="stop163"
             style="stop-color:#214371"
             offset="0.3574" /><stop
             id="stop165"
             style="stop-color:#152553"
             offset="0.5299" /></linearGradient><circle
           id="circle167"
           r="69.32"
           cy="293.759"
           cx="268.578"
           style="opacity:0.9;fill:url(#SVGID_11_)" /></g><g
         display="none"
         id="Layer_11"
         style="display:none"><g
           id="g170"
           display="inline"
           style="display:inline"><g
             id="g172"
             style="opacity:0.9"><g
               id="g174"><linearGradient
                 y2="179.8121"
                 x2="530.67969"
                 y1="384.03711"
                 x1="530.67969"
                 gradientUnits="userSpaceOnUse"
                 id="SVGID_12_"><stop
                   id="stop177"
                   style="stop-color:#005A3D"
                   offset="0.4398" /><stop
                   id="stop179"
                   style="stop-color:#236848"
                   offset="0.5818" /><stop
                   id="stop181"
                   style="stop-color:#457953"
                   offset="0.7542" /><stop
                   id="stop183"
                   style="stop-color:#58855B"
                   offset="0.8998" /><stop
                   id="stop185"
                   style="stop-color:#5E8A5D"
                   offset="1" /></linearGradient><path
                 id="path187"
                 d="m 486.728,287.571 c 7.795,24.986 18.785,49.46 34.685,70.388 8.868,11.672 22.452,26.754 38.564,26.361 14.97,-0.363 21.229,-15.98 23.527,-28.492 4.587,-24.963 -0.795,-51.931 -7.73,-75.909 -7.358,-25.445 -18.472,-50.417 -34.149,-71.86 -8.958,-12.252 -22.281,-27.696 -38.725,-28.539 -14.802,-0.76 -21.899,13.903 -24.562,26.218 -5.256,24.304 -0.186,51.042 6.262,74.573 0.667,2.433 1.393,4.848 2.128,7.26 0.302,0.99 3.19,0.185 2.898,-0.775 -7.653,-25.128 -13.254,-52.881 -8.832,-79.15 1.368,-8.127 4.107,-16.928 10.346,-22.659 6.006,-5.518 14.105,-4.228 20.865,-0.999 8.36,3.993 15.226,10.996 21.183,17.929 8.093,9.419 14.691,20.108 20.508,31.044 13.555,25.484 22.687,53.812 26.708,82.38 2.399,17.047 3.296,35.965 -2.901,52.357 -2.08,5.504 -5.593,11.045 -11.034,13.701 -5.497,2.682 -11.864,0.947 -17.068,-1.539 -13.949,-6.662 -24.328,-20.773 -32.556,-33.34 -12.007,-18.336 -20.708,-38.859 -27.218,-59.726 -0.311,-0.99 -3.197,-0.178 -2.899,0.777 z"
                 inkscape:connector-curvature="0"
                 style="fill:url(#SVGID_12_)" /></g></g><g
             id="g189"
             style="opacity:0.9"><g
               id="g191"><linearGradient
                 y2="180.33099"
                 x2="530.85248"
                 y1="382.91699"
                 x1="530.85248"
                 gradientUnits="userSpaceOnUse"
                 id="SVGID_13_"><stop
                   id="stop194"
                   style="stop-color:#005A3D"
                   offset="0.4398" /><stop
                   id="stop196"
                   style="stop-color:#236848"
                   offset="0.5818" /><stop
                   id="stop198"
                   style="stop-color:#457953"
                   offset="0.7542" /><stop
                   id="stop200"
                   style="stop-color:#58855B"
                   offset="0.8998" /><stop
                   id="stop202"
                   style="stop-color:#5E8A5D"
                   offset="1" /></linearGradient><path
                 id="path204"
                 d="m 573.534,288.607 c -7.287,25.495 -18.147,50.711 -34.911,71.473 -9.625,11.922 -28.342,29.666 -44.142,17.328 -6.69,-5.223 -9.891,-14.018 -11.895,-21.955 -2.941,-11.648 -3.102,-23.98 -2.385,-35.898 1.725,-28.666 10.047,-57.29 22.322,-83.161 7.697,-16.223 17.643,-32.302 31.162,-44.326 9.172,-8.157 22.479,-14.881 33.56,-6.229 10.987,8.579 13.403,25.691 14.334,38.581 1.556,21.549 -2.293,43.494 -8.045,64.187 -0.281,1.014 2.628,0.584 2.895,-0.376 6.913,-24.87 11.243,-51.988 6.389,-77.663 -2.605,-13.784 -9.915,-30.219 -26.076,-30.54 -15.728,-0.312 -29.061,13.876 -37.959,25.142 -16.025,20.287 -26.431,45.168 -33.485,69.845 -7.073,24.742 -11.223,52.095 -6.388,77.664 2.606,13.783 9.916,30.219 26.077,30.539 15.728,0.312 29.061,-13.875 37.959,-25.143 16.024,-20.287 26.43,-45.168 33.483,-69.845 0.288,-1.006 -2.62,-0.582 -2.895,0.377 z"
                 inkscape:connector-curvature="0"
                 style="fill:url(#SVGID_13_)" /></g></g><g
             id="g206"
             style="opacity:0.9"><g
               id="g208"><linearGradient
                 y2="222.13091"
                 x2="531.09473"
                 y1="341.05569"
                 x1="531.09473"
                 gradientUnits="userSpaceOnUse"
                 id="SVGID_14_"><stop
                   id="stop211"
                   style="stop-color:#005A3D"
                   offset="0.4398" /><stop
                   id="stop213"
                   style="stop-color:#236848"
                   offset="0.5818" /><stop
                   id="stop215"
                   style="stop-color:#457953"
                   offset="0.7542" /><stop
                   id="stop217"
                   style="stop-color:#58855B"
                   offset="0.8998" /><stop
                   id="stop219"
                   style="stop-color:#5E8A5D"
                   offset="1" /></linearGradient><path
                 id="path221"
                 d="m 621.995,226.774 c 2.627,4.869 -1.84,11.467 -4.5,15.296 -5.553,7.991 -12.876,14.802 -20.141,21.199 -22.189,19.542 -47.749,35.552 -73.812,49.352 -21.43,11.346 -45.3,23.068 -69.637,26.227 -4.478,0.582 -12.917,1.742 -14.185,-4.229 -1.221,-5.75 4.206,-12.459 7.414,-16.557 9.581,-12.242 22.171,-22.285 34.506,-31.585 17.973,-13.552 37.273,-25.387 57.153,-35.913 16.72,-8.852 34.129,-16.776 52.242,-22.323 6.563,-2.01 13.31,-3.618 20.165,-4.176 3.449,-0.28 8.656,-0.628 10.795,2.709 0.806,1.256 5.624,1.949 4.475,0.154 -6.879,-10.734 -27.472,-4.418 -36.715,-1.831 -26.502,7.42 -51.781,20.558 -75.309,34.592 -22.915,13.668 -45.606,28.996 -64.395,48.093 -5.654,5.748 -21.636,21.49 -12.699,30.271 3.394,3.334 9.085,3.854 13.561,3.838 8.188,-0.027 16.368,-2.217 24.158,-4.535 25.583,-7.617 49.979,-20.236 72.818,-33.861 21.912,-13.07 43.398,-27.66 61.771,-45.471 5.699,-5.525 11.204,-11.543 15.145,-18.478 2.142,-3.77 3.876,-8.52 1.665,-12.619 -0.709,-1.312 -5.515,-2.081 -4.475,-0.153 z"
                 inkscape:connector-curvature="0"
                 style="fill:url(#SVGID_14_)" /></g></g><g
             id="g223"
             style="opacity:0.9"><g
               id="g225"><linearGradient
                 y2="226.4966"
                 x2="531.3418"
                 y1="337.9639"
                 x1="531.3418"
                 gradientUnits="userSpaceOnUse"
                 id="SVGID_15_"><stop
                   id="stop228"
                   style="stop-color:#005A3D"
                   offset="0.4398" /><stop
                   id="stop230"
                   style="stop-color:#236848"
                   offset="0.5818" /><stop
                   id="stop232"
                   style="stop-color:#457953"
                   offset="0.7542" /><stop
                   id="stop234"
                   style="stop-color:#58855B"
                   offset="0.8998" /><stop
                   id="stop236"
                   style="stop-color:#5E8A5D"
                   offset="1" /></linearGradient><path
                 id="path238"
                 d="m 624.433,331.949 c -3,5.184 -11.59,4.344 -16.539,3.928 -11.001,-0.922 -21.869,-4.33 -32.273,-7.83 -29.226,-9.834 -57.202,-24.178 -83.288,-40.517 -11.27,-7.057 -22.199,-14.715 -32.407,-23.245 -7.001,-5.849 -13.951,-12.249 -18.998,-19.912 -2.481,-3.768 -5.336,-9.684 -1.335,-13.424 4.673,-4.37 14.276,-2.613 19.822,-1.782 17.388,2.605 34.328,9.176 50.422,16.006 20.891,8.866 41.047,19.555 60.282,31.581 14.97,9.358 29.653,19.693 42.257,32.118 4.799,4.732 15.861,15.192 12.057,23.077 -0.659,1.365 4.014,3.062 4.773,1.486 2.097,-4.346 -0.521,-9.336 -2.821,-13.027 -4.446,-7.139 -10.941,-13.117 -17.205,-18.619 -19.979,-17.548 -43.291,-31.457 -66.742,-43.79 -23.851,-12.544 -49.179,-23.717 -75.52,-29.817 -7.506,-1.738 -31.146,-7.5 -33.995,4.553 -1.057,4.469 2.064,9.375 4.448,12.849 4.796,6.987 11.282,12.883 17.669,18.371 19.684,16.915 42.354,30.464 65.255,42.508 23.067,12.131 47.607,23.118 73.038,29.231 7.778,1.869 15.985,3.555 24.035,3.033 4.371,-0.283 9.459,-1.18 11.838,-5.291 0.719,-1.243 -3.879,-3.034 -4.773,-1.487 z"
                 inkscape:connector-curvature="0"
                 style="fill:url(#SVGID_15_)" /></g></g><linearGradient
             y2="261.39551"
             x2="531.14062"
             y1="306.31879"
             x1="531.14062"
             gradientUnits="userSpaceOnUse"
             id="SVGID_16_"><stop
               id="stop241"
               style="stop-color:#005A3D"
               offset="0.4398" /><stop
               id="stop243"
               style="stop-color:#236848"
               offset="0.5818" /><stop
               id="stop245"
               style="stop-color:#457953"
               offset="0.7542" /><stop
               id="stop247"
               style="stop-color:#58855B"
               offset="0.8998" /><stop
               id="stop249"
               style="stop-color:#5E8A5D"
               offset="1" /></linearGradient><ellipse
             id="ellipse251"
             ry="20.961"
             rx="102.263"
             cy="283.858"
             cx="531.14099"
             stroke-miterlimit="10"
             style="opacity:0.9;fill:none;stroke:url(#SVGID_16_);stroke-width:3;stroke-miterlimit:10" /></g></g><g
         id="g253"><path
           id="path255"
           d="m 140.734,346.263 0,-95.51 69.292,0 0,5.351 -63.138,0 0,37.99 59.661,0 0,5.351 -59.661,0 0,46.819 -6.154,0 z"
           inkscape:connector-curvature="0"
           style="fill:#ffffff" /><path
           id="path257"
           d="m 225.943,310.948 0,-60.195 6.153,0 0,59.928 c 0,10.701 2.719,18.64 8.16,23.811 5.796,5.708 15.116,8.562 27.958,8.562 12.841,0 22.159,-2.854 27.957,-8.562 5.438,-5.171 8.16,-13.109 8.16,-23.811 l 0,-59.928 6.153,0 0,60.195 c 0,24.971 -14.092,37.455 -42.271,37.455 -28.181,0 -42.27,-12.484 -42.27,-37.455 z"
           inkscape:connector-curvature="0"
           style="fill:#ffffff" /><path
           id="path259"
           d="m 328.14,314.693 6.153,0 c 0.178,18.907 12.394,28.359 36.652,28.359 10.969,0 19.216,-2.141 24.747,-6.421 4.815,-3.746 7.224,-8.695 7.224,-14.849 0,-5.438 -1.739,-9.564 -5.217,-12.373 -3.478,-2.81 -10.123,-5.238 -19.932,-7.291 l -17.791,-3.746 c -10.613,-2.228 -18.082,-5.171 -22.406,-8.829 -4.327,-3.656 -6.488,-9.05 -6.488,-16.186 0,-7.401 3.144,-13.376 9.431,-17.925 6.287,-4.548 15.183,-6.822 26.687,-6.822 26.039,0 39.371,9.721 39.996,29.162 l -6.153,0 c -1.16,-15.873 -11.861,-23.811 -32.104,-23.811 -20.6,0 -30.9,6.51 -30.9,19.53 0,5.263 1.472,9.23 4.415,11.905 3.298,2.943 9.364,5.263 18.192,6.956 l 19.664,3.879 c 10.166,1.962 17.478,4.728 21.938,8.293 5.083,3.925 7.625,9.543 7.625,16.854 0,7.581 -2.676,13.69 -8.026,18.326 -6.601,5.798 -16.721,8.695 -30.365,8.695 -28.895,0.004 -43.342,-11.232 -43.342,-33.706 z"
           inkscape:connector-curvature="0"
           style="fill:#ffffff" /><path
           id="path261"
           d="m 428.331,346.263 0,-95.51 6.153,0 0,95.51 -6.153,0 z"
           inkscape:connector-curvature="0"
           style="fill:#ffffff" /><path
           id="path263"
           d="m 453.075,298.508 c 0,-11.949 3.612,-22.607 10.836,-31.971 9.184,-11.949 22.473,-17.925 39.862,-17.925 17.389,0 30.677,5.976 39.862,17.925 7.224,9.364 10.836,20.021 10.836,31.971 0,11.951 -3.612,22.606 -10.836,31.971 -9.186,11.951 -22.473,17.925 -39.862,17.925 -17.389,0 -30.679,-5.974 -39.862,-17.925 -7.223,-9.365 -10.836,-20.02 -10.836,-31.971 z m 6.154,0 c 0,12.129 3.834,22.429 11.504,30.9 8.294,9.096 19.307,13.645 33.041,13.645 13.732,0 24.747,-4.549 33.041,-13.645 7.668,-8.472 11.504,-18.771 11.504,-30.9 0,-12.127 -3.836,-22.427 -11.504,-30.9 -8.294,-9.096 -19.309,-13.644 -33.041,-13.644 -13.734,0 -24.747,4.548 -33.041,13.644 -7.671,8.473 -11.504,18.773 -11.504,30.9 z"
           inkscape:connector-curvature="0"
           style="fill:#ffffff" /><path
           id="path265"
           d="m 573.063,346.263 0,-95.51 7.785,0 71.539,86.948 0,-86.948 6.153,0 0,95.51 -7.786,0 -71.538,-86.949 0,86.949 -6.153,0 z"
           inkscape:connector-curvature="0"
           style="fill:#ffffff" /></g></g><g
       id="Layer_10"><g
         id="g268"><path
           id="path270"
           d="m 310.106,429.856 1.84,0 c 0.053,5.654 3.706,8.48 10.96,8.48 3.28,0 5.746,-0.64 7.4,-1.92 1.44,-1.12 2.16,-2.601 2.16,-4.44 0,-1.626 -0.52,-2.859 -1.56,-3.699 -1.04,-0.841 -3.027,-1.566 -5.96,-2.181 l -5.32,-1.12 c -3.174,-0.666 -5.407,-1.546 -6.7,-2.64 -1.293,-1.093 -1.94,-2.706 -1.94,-4.84 0,-2.213 0.94,-4 2.82,-5.36 1.88,-1.359 4.54,-2.04 7.98,-2.04 7.787,0 11.773,2.907 11.96,8.72 l -1.84,0 c -0.347,-4.746 -3.547,-7.119 -9.6,-7.119 -6.16,0 -9.24,1.946 -9.24,5.84 0,1.573 0.44,2.76 1.32,3.56 0.986,0.88 2.8,1.574 5.44,2.08 l 5.88,1.16 c 3.04,0.587 5.226,1.414 6.56,2.479 1.52,1.174 2.28,2.854 2.28,5.04 0,2.268 -0.8,4.094 -2.4,5.48 -1.974,1.733 -5,2.6 -9.08,2.6 -8.64,0.001 -12.96,-3.359 -12.96,-10.08 z"
           inkscape:connector-curvature="0" /><path
           id="path272"
           d="m 337.065,412.337 0,-1.6 24.88,0 0,1.6 -11.52,0 0,26.96 -1.84,0 0,-26.96 -11.52,0 z"
           inkscape:connector-curvature="0" /><path
           id="path274"
           d="m 365.505,428.737 0,-18 1.84,0 0,17.92 c 0,3.199 0.813,5.573 2.44,7.12 1.733,1.706 4.52,2.56 8.36,2.56 3.84,0 6.626,-0.854 8.36,-2.56 1.626,-1.547 2.439,-3.921 2.439,-7.12 l 0,-17.92 1.841,0 0,18 c 0,7.467 -4.214,11.199 -12.641,11.199 -8.427,0 -12.639,-3.732 -12.639,-11.199 z"
           inkscape:connector-curvature="0" /><path
           id="path276"
           d="m 397.346,439.297 0,-28.56 13.358,0 c 8.533,0 12.801,4.76 12.801,14.279 0,4.347 -1.08,7.774 -3.24,10.28 -2.293,2.667 -5.586,4 -9.88,4 l -13.039,0 z m 1.84,-26.96 0,25.36 11.56,0 c 3.332,0 5.945,-1.014 7.84,-3.04 2.053,-2.187 3.08,-5.4 3.08,-9.641 0,-8.453 -3.787,-12.68 -11.36,-12.68 l -11.12,0 z"
           inkscape:connector-curvature="0" /><path
           id="path278"
           d="m 429.704,439.297 0,-28.56 1.84,0 0,28.56 -1.84,0 z"
           inkscape:connector-curvature="0" /><path
           id="path280"
           d="m 437.104,425.017 c 0,-3.573 1.08,-6.76 3.24,-9.56 2.746,-3.573 6.719,-5.36 11.92,-5.36 5.199,0 9.172,1.787 11.92,5.36 2.16,2.8 3.24,5.986 3.24,9.56 0,3.574 -1.08,6.761 -3.24,9.561 -2.748,3.573 -6.721,5.359 -11.92,5.359 -5.201,0 -9.174,-1.786 -11.92,-5.359 -2.159,-2.801 -3.24,-5.987 -3.24,-9.561 z m 1.84,0 c 0,3.627 1.146,6.707 3.439,9.24 2.48,2.72 5.773,4.08 9.881,4.08 4.105,0 7.398,-1.36 9.879,-4.08 2.293,-2.533 3.439,-5.613 3.439,-9.24 0,-3.626 -1.146,-6.706 -3.439,-9.239 -2.48,-2.721 -5.773,-4.08 -9.879,-4.08 -4.107,0 -7.4,1.359 -9.881,4.08 -2.292,2.533 -3.439,5.613 -3.439,9.239 z"
           inkscape:connector-curvature="0" /></g></g></g></svg>