<?xml version="1.0" encoding="utf-8"?>
<!-- Generator: Adobe Illustrator 20.1.0, SVG Export Plug-In . SVG Version: 6.00 Build 0)  -->
<svg version="1.1" id="FINAL" xmlns="http://www.w3.org/2000/svg" xmlns:xlink="http://www.w3.org/1999/xlink" x="0px" y="0px"
	 viewBox="0 0 2160 830" style="enable-background:new 0 0 2160 830;" xml:space="preserve">
<style type="text/css">
	.st0{fill:#952556;}
	.st1{fill:#98999A;}
	.st2{fill:none;}
	.st3{fill:#407293;}
	.st4{fill:#78B2BC;}
</style>
<g>
	<g>
		<path class="st0" d="M1120,192.2v23.4h-109.3v66.3h95.9v23.4h-95.9v95.6h-27.8V192.2H1120z"/>
		<path class="st0" d="M1295.9,385.5c-14.2,13.3-34.5,20-60.8,20c-26.9,0-47.9-6.4-63-19.1c-15.1-12.8-22.6-33.1-22.6-60.9V192.2
			h27.8v133.3c0,18.7,5,32.9,14.9,42.5c9.9,9.6,24.3,14.5,43,14.5c17.7,0,31.2-4.8,40.5-14.5c9.3-9.6,13.9-23.8,13.9-42.5V192.2
			h27.8v133.3C1317.2,352.2,1310.1,372.2,1295.9,385.5z"/>
		<path class="st0" d="M1469,220.7c-9.3-6.7-21.1-10.1-35.5-10.1c-5.8,0-11.6,0.6-17.2,1.8c-5.7,1.2-10.7,3.1-15.1,5.8
			c-4.4,2.7-7.9,6.4-10.5,11c-2.6,4.6-3.9,10.3-3.9,17.1c0,6.4,1.9,11.6,5.7,15.6c3.8,4,8.9,7.3,15.2,9.8c6.3,2.5,13.5,4.6,21.5,6.3
			c8,1.7,16.1,3.5,24.4,5.4c8.3,1.9,16.4,4.2,24.4,6.9c8,2.6,15.1,6.2,21.5,10.7c6.3,4.5,11.4,10.1,15.2,17
			c3.8,6.8,5.7,15.4,5.7,25.7c0,11.1-2.5,20.6-7.5,28.5c-5,7.9-11.4,14.3-19.1,19.3c-7.8,5-16.5,8.6-26.2,10.8
			c-9.6,2.2-19.2,3.4-28.8,3.4c-11.7,0-22.7-1.5-33.2-4.4c-10.4-2.9-19.6-7.4-27.5-13.3c-7.9-5.9-14.1-13.5-18.7-22.8
			c-4.6-9.3-6.9-20.2-6.9-32.9h26.3c0,8.8,1.7,16.3,5.1,22.6c3.4,6.3,7.9,11.5,13.4,15.6s12,7.1,19.4,9.1c7.4,1.9,15,2.9,22.8,2.9
			c6.2,0,12.5-0.6,18.8-1.8c6.3-1.2,12-3.2,17.1-6c5.1-2.8,9.2-6.7,12.3-11.5c3.1-4.9,4.7-11.1,4.7-18.7c0-7.2-1.9-13.1-5.7-17.5
			c-3.8-4.5-8.9-8.1-15.2-11c-6.3-2.8-13.5-5.1-21.5-6.9c-8-1.8-16.1-3.6-24.4-5.4c-8.3-1.8-16.4-4-24.4-6.4
			c-8-2.4-15.2-5.6-21.5-9.6c-6.3-4-11.4-9.2-15.2-15.5c-3.8-6.3-5.7-14.3-5.7-23.8c0-10.5,2.1-19.6,6.4-27.3c4.3-7.7,10-14,17.1-19
			c7.1-5,15.2-8.7,24.3-11.1c9.1-2.4,18.4-3.7,27.9-3.7c10.7,0,20.6,1.3,29.8,3.8c9.2,2.5,17.2,6.5,24.1,12
			c6.9,5.5,12.4,12.3,16.4,20.6c4,8.3,6.2,18.2,6.6,29.7h-26.3C1483.7,238.3,1478.3,227.4,1469,220.7z"/>
		<path class="st0" d="M1588.7,192.2v208.7H1561V192.2H1588.7z"/>
		<path class="st0" d="M1633,255.5c4.2-13.2,10.5-24.8,18.8-34.9c8.4-10.1,18.8-18.2,31.3-24.3c12.5-6,27-9.1,43.5-9.1
			c16.6,0,31.1,3,43.5,9.1c12.5,6,22.9,14.1,31.3,24.3c8.4,10.1,14.7,21.8,18.8,34.9c4.2,13.2,6.3,26.8,6.3,41.1
			c0,14.2-2.1,27.9-6.3,41.1c-4.2,13.2-10.5,24.8-18.8,34.9c-8.4,10.1-18.8,18.2-31.3,24.1c-12.5,5.9-27,8.9-43.5,8.9
			c-16.6,0-31.1-3-43.5-8.9c-12.5-5.9-22.9-14-31.3-24.1c-8.4-10.1-14.7-21.8-18.8-34.9c-4.2-13.2-6.3-26.8-6.3-41.1
			C1626.7,282.3,1628.8,268.6,1633,255.5z M1658.6,327.7c2.7,10.2,7,19.4,12.9,27.6c5.8,8.2,13.3,14.8,22.5,19.7
			c9.2,5,20.1,7.5,32.7,7.5c12.7,0,23.6-2.5,32.7-7.5c9.2-5,16.7-11.5,22.5-19.7c5.8-8.2,10.1-17.4,12.9-27.6
			c2.7-10.2,4.1-20.6,4.1-31.1c0-10.5-1.4-20.9-4.1-31.1c-2.7-10.2-7-19.4-12.9-27.6s-13.3-14.8-22.5-19.7c-9.2-5-20.1-7.5-32.7-7.5
			c-12.7,0-23.6,2.5-32.7,7.5c-9.2,5-16.7,11.5-22.5,19.7s-10.1,17.4-12.9,27.6c-2.7,10.2-4.1,20.6-4.1,31.1
			C1654.5,307.1,1655.8,317.4,1658.6,327.7z"/>
		<path class="st0" d="M1889.7,192.2l109.9,169.2h0.6V192.2h26.3v208.7h-30.4l-109-167.5h-0.6v167.5h-26.3V192.2H1889.7z"/>
	</g>
	<g>
		<path class="st1" d="M1004.3,614c3,6.2,7.1,11.1,12.4,14.7c5.2,3.7,11.4,6.3,18.6,7.9c7.2,1.6,14.8,2.4,23,2.4
			c4.7,0,9.7-0.7,15.2-2c5.5-1.3,10.6-3.5,15.4-6.4c4.7-2.9,8.7-6.7,11.9-11.2c3.2-4.6,4.7-10.1,4.7-16.6c0-5-1.1-9.3-3.4-13
			c-2.2-3.7-5.2-6.7-8.7-9.2c-3.6-2.5-7.5-4.5-11.9-6.1c-4.3-1.6-8.6-2.9-12.7-3.9l-39.7-9.7c-5.2-1.3-10.2-3-15.1-5
			c-4.9-2-9.2-4.7-12.9-8c-3.7-3.3-6.6-7.4-8.9-12.2c-2.2-4.8-3.4-10.7-3.4-17.7c0-4.3,0.8-9.4,2.5-15.2c1.7-5.8,4.8-11.3,9.4-16.5
			c4.6-5.2,10.9-9.5,18.9-13.1c8-3.6,18.2-5.4,30.7-5.4c8.8,0,17.2,1.2,25.2,3.5c8,2.3,15,5.8,21,10.5c6,4.7,10.8,10.5,14.4,17.4
			c3.6,6.9,5.4,15,5.4,24.1h-17c-0.3-6.8-1.9-12.8-4.6-17.9c-2.7-5.1-6.3-9.3-10.7-12.7c-4.4-3.4-9.5-6-15.2-7.7
			c-5.7-1.7-11.8-2.6-18.1-2.6c-5.8,0-11.5,0.6-16.9,1.9c-5.4,1.2-10.2,3.2-14.2,6c-4.1,2.7-7.4,6.4-9.9,10.9
			c-2.5,4.5-3.7,10.1-3.7,16.7c0,4.2,0.7,7.8,2.1,10.9c1.4,3.1,3.4,5.7,5.9,7.9c2.5,2.2,5.4,3.9,8.6,5.2c3.2,1.3,6.7,2.4,10.4,3.2
			l43.5,10.7c6.3,1.7,12.3,3.7,17.9,6.1c5.6,2.4,10.5,5.4,14.7,9c4.2,3.6,7.6,8,10,13.1c2.4,5.2,3.6,11.4,3.6,18.7
			c0,2-0.2,4.7-0.6,8c-0.4,3.3-1.4,6.9-3,10.6c-1.6,3.7-3.8,7.5-6.7,11.4c-2.9,3.8-6.9,7.3-12,10.4c-5.1,3.1-11.4,5.6-18.9,7.5
			c-7.5,1.9-16.5,2.9-27,2.9c-10.5,0-20.2-1.2-29.2-3.6c-9-2.4-16.7-6.1-23-11.1c-6.3-5-11.2-11.4-14.6-19.2
			c-3.4-7.8-4.9-17.2-4.4-28.2h17C999.9,600.2,1001.3,607.9,1004.3,614z"/>
		<path class="st1" d="M1308,471.4v14.5h-62.2v163.9h-17V485.9h-62v-14.5H1308z"/>
		<path class="st1" d="M1376.3,471.4v110.4c0,10.3,1.2,19.1,3.5,26.4c2.3,7.2,5.7,13.2,10.2,17.7c4.5,4.6,10,7.9,16.5,10
			c6.5,2.1,13.8,3.1,22,3.1c8.3,0,15.7-1,22.2-3.1c6.5-2.1,12-5.4,16.5-10c4.5-4.6,7.9-10.5,10.2-17.7c2.3-7.2,3.5-16,3.5-26.4
			V471.4h17v114.2c0,9.2-1.3,17.9-3.9,26.1c-2.6,8.2-6.7,15.5-12.2,21.6c-5.6,6.2-12.7,11-21.5,14.6c-8.7,3.6-19.4,5.4-31.9,5.4
			c-12.3,0-22.9-1.8-31.6-5.4c-8.7-3.6-15.9-8.5-21.5-14.6c-5.6-6.2-9.7-13.4-12.2-21.6c-2.6-8.2-3.9-16.9-3.9-26.1V471.4H1376.3z"
			/>
		<path class="st1" d="M1630.3,471.4c27.1,0.7,47.6,8.3,61.3,22.9c13.7,14.6,20.6,36.7,20.6,66.3c0,29.6-6.9,51.8-20.6,66.3
			c-13.7,14.6-34.2,22.2-61.3,22.9h-61.7V471.4H1630.3z M1621.8,635.3c12.8,0,23.9-1.4,33.1-4.1s16.9-7.1,22.9-13.1
			c6-6,10.4-13.7,13.2-23.2c2.8-9.5,4.2-20.9,4.2-34.2c0-13.3-1.4-24.7-4.2-34.2c-2.8-9.5-7.2-17.2-13.2-23.2
			c-6-6-13.6-10.4-22.9-13.1s-20.3-4.1-33.1-4.1h-36.2v149.4H1621.8z"/>
		<path class="st1" d="M1794.3,471.4v178.4h-17V471.4H1794.3z"/>
		<path class="st1" d="M1863.7,525.3c3.5-11.2,8.7-21,15.7-29.6c7-8.6,15.8-15.4,26.4-20.5c10.6-5.1,22.9-7.6,36.8-7.6
			c14,0,26.2,2.5,36.7,7.6c10.5,5.1,19.2,11.9,26.2,20.5c7,8.6,12.2,18.4,15.7,29.6c3.5,11.2,5.2,22.9,5.2,35.2
			c0,12.3-1.7,24.1-5.2,35.2c-3.5,11.2-8.7,21-15.7,29.5s-15.7,15.3-26.2,20.4c-10.5,5.1-22.7,7.6-36.7,7.6c-14,0-26.3-2.5-36.8-7.6
			c-10.6-5.1-19.4-11.9-26.4-20.4c-7-8.5-12.2-18.3-15.7-29.5c-3.5-11.2-5.2-22.9-5.2-35.2C1858.4,548.3,1860.2,536.5,1863.7,525.3z
			 M1879.3,589.2c2.6,9.4,6.6,17.8,12,25.2c5.4,7.4,12.4,13.4,20.9,17.9c8.5,4.5,18.7,6.7,30.5,6.7c11.8,0,21.9-2.2,30.4-6.7
			c8.4-4.5,15.3-10.5,20.7-17.9c5.4-7.4,9.4-15.8,12-25.2c2.6-9.4,3.9-18.9,3.9-28.6c0-9.8-1.3-19.4-3.9-28.7
			c-2.6-9.3-6.6-17.7-12-25.1c-5.4-7.4-12.3-13.4-20.7-17.9c-8.4-4.5-18.5-6.7-30.4-6.7c-11.8,0-22,2.2-30.5,6.7
			c-8.5,4.5-15.5,10.5-20.9,17.9c-5.4,7.4-9.4,15.8-12,25.1c-2.6,9.3-3.9,18.9-3.9,28.7C1875.4,570.2,1876.7,579.8,1879.3,589.2z"/>
	</g>
</g>
<g>
	<g>
		<circle class="st2" cx="469.7" cy="415" r="358.4"/>
		<path class="st3" d="M543.9,423.1c-10.7,30.7-30.6,58.8-67.2,62C517.9,482.3,540.2,454.8,543.9,423.1z"/>
		<g>
			<g>
				<path class="st0" d="M771.3,221.4c-63.8-99.1-175-164.8-301.5-164.8c-65.8,0-127.4,17.7-180.4,48.7
					c-52.9,30.9-97.3,75-128.5,127.8c38.2-59.3,104.8-98.5,180.5-98.5c118.4,0,214.4,96,214.4,214.4c0,15.3-2.1,45.8-11.9,73.9
					c-10.7,30.7-30.6,58.8-67.2,62c-1.1,0.1-2.3,0.1-3.4,0.2c-1.2,0.1-2.3,0.1-3.6,0.1c-38.9,0-70.3-31.5-70.3-70.3
					c0-37.6,29.5-68.3,66.6-70.2c-1.1,0.1-2.3,0.1-3.4,0.2c-36.6,3.2-56.5,31.3-67.3,62c-5,42.6,23.6,92.9,85.8,102
					c108.5,15.9,196.8-28.8,240.7-86.3C796.1,325.4,771.3,221.4,771.3,221.4z"/>
				<path class="st0" d="M168,608.6c63.8,99.1,175,164.8,301.5,164.8c65.8,0,127.4-17.7,180.4-48.7c52.9-30.9,97.3-75,128.5-127.8
					c-38.2,59.3-104.8,98.5-180.5,98.5c-118.4,0-214.4-96-214.4-214.4c0-15.3,2.1-45.8,11.9-73.9c10.7-30.7,30.6-58.8,67.2-62
					c1.1-0.1,2.3-0.1,3.4-0.2c1.2-0.1,2.3-0.1,3.6-0.1c38.9,0,70.3,31.5,70.3,70.3c0,37.6-29.5,68.3-66.6,70.2
					c1.1-0.1,2.3-0.1,3.4-0.2c36.6-3.2,56.5-31.3,67.3-62c5-42.6-23.6-92.9-85.8-102c-108.5-15.9-196.8,28.8-240.7,86.3
					C143.2,504.6,168,608.6,168,608.6z"/>
			</g>
			<g>
				<g>
					<path class="st0" d="M771.3,221.4c-63.8-99.1-175-164.8-301.5-164.8c-65.8,0-127.4,17.7-180.4,48.7
						c-52.9,30.9-97.3,75-128.5,127.8c38.2-59.3,104.8-98.5,180.5-98.5c118.4,0,214.4,96,214.4,214.4c0,15.3-2.1,45.8-11.9,73.9
						c-10.7,30.7-30.6,58.8-67.2,62c-1.1,0.1-2.3,0.1-3.4,0.2c-1.2,0.1-2.3,0.1-3.6,0.1c-38.9,0-70.3-31.5-70.3-70.3
						c0-37.6,29.5-68.3,66.6-70.2c-1.1,0.1-2.3,0.1-3.4,0.2c-36.6,3.2-56.5,31.3-67.3,62c-5,42.6,23.6,92.9,85.8,102
						c108.5,15.9,196.8-28.8,240.7-86.3C796.1,325.4,771.3,221.4,771.3,221.4z"/>
					<path class="st0" d="M168,608.6c63.8,99.1,175,164.8,301.5,164.8c65.8,0,127.4-17.7,180.4-48.7c52.9-30.9,97.3-75,128.5-127.8
						c-38.2,59.3-104.8,98.5-180.5,98.5c-118.4,0-214.4-96-214.4-214.4c0-15.3,2.1-45.8,11.9-73.9c10.7-30.7,30.6-58.8,67.2-62
						c1.1-0.1,2.3-0.1,3.4-0.2c1.2-0.1,2.3-0.1,3.6-0.1c38.9,0,70.3,31.5,70.3,70.3c0,37.6-29.5,68.3-66.6,70.2
						c1.1-0.1,2.3-0.1,3.4-0.2c36.6-3.2,56.5-31.3,67.3-62c5-42.6-23.6-92.9-85.8-102c-108.5-15.9-196.8,28.8-240.7,86.3
						C143.2,504.6,168,608.6,168,608.6z"/>
				</g>
			</g>
		</g>
		<path class="st3" d="M240.1,181c-31.4,36.7-43.2,85-43.2,85c-55.1,34.6-73.6,67.3-78.8,79.3c5.8-29.4,15.2-57.5,27.7-83.8
			C182.1,205.5,239.2,181.4,240.1,181z"/>
		<path class="st3" d="M419.6,199.3c10,5,19.5,10.5,28.5,16.4C438.8,209.4,429.2,204,419.6,199.3z"/>
		<path class="st3" d="M485.9,246.2c2.7,2.6,5.3,5.2,7.8,7.9C491.1,251.4,488.5,248.7,485.9,246.2z"/>
		<path class="st3" d="M473.4,234.8c4.3,3.6,8.4,7.5,12.5,11.4C481.9,242.3,477.7,238.5,473.4,234.8z"/>
		<path class="st3" d="M494.7,255.2c-0.4-0.4-0.7-0.8-1-1.1C494,254.4,494.4,254.8,494.7,255.2z"/>
		<path class="st4" d="M459.1,256.1c-2.8-2.4-5.6-4.9-8.4-7.3c-2.1-1.7-4.1-3.3-6.2-4.8c-54.1-40.1-120-51.8-167.9-51.9h-0.1
			c-13,13.9-23.4,33.4-30.1,54.7C301.2,225.2,383.2,223.1,459.1,256.1C456.3,253.6,383.2,223.1,459.1,256.1z"/>
		<path class="st4" d="M145.1,430.6c-15.3,29.1-22.2,66-23.1,71.5c-7-27.9-10.7-57.1-10.7-87.2c0-9.7,0.4-19.4,1.2-28.9
			c13.1-31.4,41.3-57.4,41.3-57.4S139.7,377.5,145.1,430.6z"/>
		<path class="st4" d="M152.5,582c-8-15.1-14.9-30.8-20.6-47.1c1.6-33.9,9.8-57.2,9.8-57.2c1.9,18.1,13.3,36.8,13.3,36.8
			C146.3,541,151.7,577,152.5,582z"/>
		<path class="st4" d="M199.7,305.4c0,0-16.3,35.4-15.2,87.5c0,0,30.4-51.3,100.6-83.5c0,0,11.3-31.8,33.1-52.6
			C318.1,256.7,248.7,261,199.7,305.4z"/>
		<path class="st3" d="M821.6,482.9c-5.5,28.5-14.3,55.9-26.2,81.6c-11.1,17.8-45.2,54.4-73,68.6c0.6-0.5,20.9-16.8,33.6-63.8
			C800.6,531.9,817.6,493.4,821.6,482.9z"/>
		<path class="st4" d="M784.7,511.7c-20.3,25.1-51.2,54.2-98.9,71.2c6.4-13.3,11.7-28,14.4-41.3c33.6-17.3,69.2-52.6,92.1-83.9
			C792,482.2,788.5,497.7,784.7,511.7z"/>
		<path class="st3" d="M822.5,352.2c-22,65.9-51.6,102.6-67.3,118.7c-6.8,7-11.1,10.1-11.1,10.1c2.8-18,3.6-40.5,2.7-60.1
			c39.6-58.3,48.1-117,48.1-156.5C807.7,291.9,817.1,321.4,822.5,352.2z"/>
		<path class="st4" d="M616,549.2c30.8-6,73.6-25.2,89.2-40.9c3.9-11.8,5.8-26.5,7-46.6c-23.1,21.6-50.9,38.7-81.8,50.5h-0.1
			C628.7,519.2,624.1,535.2,616,549.2z"/>
		<path class="st3" d="M338.5,296.3c0,0,12.1-24.4,28.8-36.5c0,0,74,2.8,117.1,39.9C444.5,282.8,389.4,280.7,338.5,296.3z"/>
		<path class="st3" d="M609,667.3c21.1,0.1,43.6-5.6,62.6-12.3c0,0,20.7-13.6,36.4-54.8c-26.4,13.6-58.2,23.8-76.8,26.5
			C624.2,643,616.8,657.6,609,667.3z"/>
		<path class="st4" d="M555.9,659.4c-35.9-7.3-79.5-32.7-99.1-63.4c33.2,22.6,77.5,35.3,113.6,35.8
			C567.1,641.9,562.3,652,555.9,659.4z"/>
		<path class="st3" d="M622.4,598.6c7.1-12.4,12.9-23.8,17.6-39.9c-54,25.9-175.1,18.2-216.1-34.4
			C459,603.5,576.8,612.4,622.4,598.6z"/>
		<path class="st3" d="M532.9,306.5c-14.8-51.9-60.6-130.6-160.4-153.1c0,0-13.8,4.8-27,20.7c24.3,4.9,49.6,12.9,74.2,25.3
			c9.6,4.6,19.2,10.1,28.5,16.4c2.2,1.3,4.4,2.8,6.6,4.5c4.3,2.9,8.5,6,12.7,9.5c2.1,1.5,4.1,3.1,6,5
			C495.6,253.4,515.8,277,532.9,306.5z"/>
	</g>
</g>
</svg>
