<?xml version="1.0" encoding="UTF-8" standalone="no"?>
<svg
   xmlns:dc="http://purl.org/dc/elements/1.1/"
   xmlns:cc="http://creativecommons.org/ns#"
   xmlns:rdf="http://www.w3.org/1999/02/22-rdf-syntax-ns#"
   xmlns:svg="http://www.w3.org/2000/svg"
   xmlns="http://www.w3.org/2000/svg"
   viewBox="0 0 342.96225 30.356251"
   height="30.356251"
   width="342.96225"
   xml:space="preserve"
   version="1.1"
   id="svg2"><metadata
     id="metadata8"><rdf:RDF><cc:Work
         rdf:about=""><dc:format>image/svg+xml</dc:format><dc:type
           rdf:resource="http://purl.org/dc/dcmitype/StillImage" /><dc:title></dc:title></cc:Work></rdf:RDF></metadata><defs
     id="defs6"><clipPath
       id="clipPath16"
       clipPathUnits="userSpaceOnUse"><path
         id="path18"
         d="m 0,68.902 351.163,0 L 351.163,0 0,0 0,68.902 Z" /></clipPath></defs><g
     transform="matrix(1.25,0,0,-1.25,-48.384625,59.653375)"
     id="g10"><g
       style="fill:#ffffff"
       id="g12"><g
         style="fill:#ffffff"
         clip-path="url(#clipPath16)"
         id="g14"><g
           style="fill:#ffffff"
           transform="translate(38.7077,30.8342)"
           id="g20"><path
             id="path22"
             style="fill:#ffffff;fill-opacity:1;fill-rule:nonzero;stroke:none"
             d="m 0,0 0,16.431 2.88,0 L 2.88,0 c 0,-1.746 0.311,-3.022 0.933,-3.829 0.622,-0.808 1.631,-1.211 3.028,-1.211 1.483,0 2.53,0.436 3.141,1.309 0.568,0.763 0.852,2.007 0.852,3.731 l 0,16.431 2.88,0 0,-16.431 c 0,-2.291 -0.568,-4.08 -1.702,-5.367 C 10.812,-6.721 9.088,-7.396 6.841,-7.396 2.28,-7.396 0,-4.932 0,0" /></g><g
           style="fill:#ffffff"
           transform="translate(55.9567,23.8957)"
           id="g24"><path
             id="path26"
             style="fill:#ffffff;fill-opacity:1;fill-rule:nonzero;stroke:none"
             d="m 0,0 0,23.369 3.752,0 7.769,-19.507 0,19.507 2.879,0 L 14.4,0 10.418,0 2.88,18.918 2.88,0 0,0 Z" /></g><path
           id="path28"
           style="fill:#ffffff;fill-opacity:1;fill-rule:nonzero;stroke:none"
           d="m 74.154,47.265 2.88,0 0,-23.369 -2.88,0 0,23.369 z" /><g
           style="fill:#ffffff"
           transform="translate(84.5612,23.8957)"
           id="g30"><path
             id="path32"
             style="fill:#ffffff;fill-opacity:1;fill-rule:nonzero;stroke:none"
             d="m 0,0 -5.694,23.369 3.01,0 4.582,-20.063 0.066,0 4.582,20.063 3.012,0 L 3.666,0 0,0 Z" /></g><g
           style="fill:#ffffff"
           transform="translate(95.9518,23.8957)"
           id="g34"><path
             id="path36"
             style="fill:#ffffff;fill-opacity:1;fill-rule:nonzero;stroke:none"
             d="m 0,0 0,23.369 12.077,0 0,-2.553 -9.197,0 0,-7.332 8.673,0 0,-2.552 -8.673,0 0,-8.379 9.59,0 L 12.47,0 0,0 Z" /></g><g
           style="fill:#ffffff"
           transform="translate(113.985,44.9079)"
           id="g38"><path
             id="path40"
             style="fill:#ffffff;fill-opacity:1;fill-rule:nonzero;stroke:none"
             d="m 0,0 0,-8.248 2.848,0 c 1.374,0 2.388,0.185 3.044,0.557 1.177,0.676 1.767,1.996 1.767,3.96 0,1.156 -0.372,2.067 -1.113,2.733 C 5.804,-0.333 4.768,0 3.437,0 L 0,0 Z m -2.88,-21.012 0,23.369 7.561,0 c 1.853,0 3.316,-0.519 4.385,-1.555 1.069,-1.036 1.604,-2.471 1.604,-4.304 0,-3.338 -1.2,-5.302 -3.601,-5.891 l 0,-0.065 c 0.983,-0.11 1.768,-0.53 2.357,-1.261 0.59,-0.731 0.905,-1.609 0.949,-2.634 l 0.196,-3.993 c 0.087,-1.987 0.502,-3.208 1.244,-3.666 l -3.469,0 c -0.414,0.414 -0.676,1.538 -0.785,3.371 l -0.197,3.633 c -0.088,1.418 -0.502,2.389 -1.244,2.913 -0.479,0.327 -1.222,0.491 -2.225,0.491 l -3.895,0 0,-10.408 -2.88,0 z" /></g><g
           style="fill:#ffffff"
           transform="translate(140.8893,41.2097)"
           id="g42"><path
             id="path44"
             style="fill:#ffffff;fill-opacity:1;fill-rule:nonzero;stroke:none"
             d="m 0,0 -2.881,0 c 0,2.771 -1.211,4.157 -3.633,4.157 -2.575,0 -3.862,-1.266 -3.862,-3.797 0,-1.789 0.949,-3.099 2.848,-3.927 1.767,-0.677 3.546,-1.354 5.335,-2.03 1.898,-1.091 2.847,-2.837 2.847,-5.236 0,-2.466 -0.797,-4.299 -2.389,-5.5 -1.287,-0.959 -2.913,-1.439 -4.877,-1.439 -2.618,0 -4.484,0.676 -5.597,2.029 -0.981,1.2 -1.473,3.12 -1.473,5.76 l 2.881,0 c 0,-1.724 0.207,-2.956 0.621,-3.698 0.633,-1.156 1.888,-1.735 3.765,-1.735 1.156,0 2.121,0.382 2.896,1.146 0.775,0.764 1.162,1.756 1.162,2.978 0,1.79 -0.949,3.12 -2.847,3.993 -1.768,0.676 -3.547,1.364 -5.335,2.062 -1.899,1.113 -2.848,2.881 -2.848,5.302 0,1.593 0.404,2.935 1.211,4.026 1.156,1.615 3.032,2.422 5.63,2.422 C -2.248,6.513 -0.065,4.342 0,0" /></g><path
           id="path46"
           style="fill:#ffffff;fill-opacity:1;fill-rule:nonzero;stroke:none"
           d="m 144.457,47.265 2.88,0 0,-23.369 -2.88,0 0,23.369 z" /><g
           style="fill:#ffffff"
           transform="translate(158.235,44.7117)"
           id="g48"><path
             id="path50"
             style="fill:#ffffff;fill-opacity:1;fill-rule:nonzero;stroke:none"
             d="m 0,0 0,-20.816 -2.88,0 0,20.816 -5.858,0 0,2.553 14.63,0 L 5.892,0 0,0 Z" /></g><g
           style="fill:#ffffff"
           transform="translate(170.5094,33.0598)"
           id="g52"><path
             id="path54"
             style="fill:#ffffff;fill-opacity:1;fill-rule:nonzero;stroke:none"
             d="m 0,0 -6.187,14.205 3.175,0 4.451,-10.932 4.616,10.932 3.01,0 L 2.88,0 2.88,-9.164 0,-9.164 0,0 Z" /></g><g
           style="fill:#ffffff"
           transform="translate(189.2623,23.8957)"
           id="g56"><path
             id="path58"
             style="fill:#ffffff;fill-opacity:1;fill-rule:nonzero;stroke:none"
             d="m 0,0 0,23.369 2.88,0 0,-20.816 9.492,0 L 12.372,0 0,0 Z" /></g><path
           id="path60"
           style="fill:#ffffff;fill-opacity:1;fill-rule:nonzero;stroke:none"
           d="m 203.794,47.265 2.88,0 0,-23.369 -2.88,0 0,23.369 z" /><g
           style="fill:#ffffff"
           transform="translate(213.3502,35.0237)"
           id="g62"><path
             id="path64"
             style="fill:#ffffff;fill-opacity:1;fill-rule:nonzero;stroke:none"
             d="m 0,0 0,-8.771 3.928,0 c 2.727,0 4.092,1.44 4.092,4.32 0,1.527 -0.449,2.673 -1.342,3.436 C 5.87,-0.338 4.79,0 3.438,0 L 0,0 Z m 0,9.884 0,-7.724 3.306,0 c 2.64,0 3.961,1.298 3.961,3.895 0,2.553 -1.342,3.829 -4.027,3.829 l -3.24,0 z m -2.88,-21.012 0,23.369 7.168,0 c 1.724,0 3.098,-0.426 4.124,-1.277 1.243,-1.026 1.865,-2.596 1.865,-4.713 0,-1.091 -0.31,-2.1 -0.932,-3.027 C 8.723,2.296 7.899,1.68 6.874,1.375 l 0,-0.065 c 2.771,-0.655 4.156,-2.576 4.156,-5.761 0,-4.451 -2.52,-6.677 -7.56,-6.677 l -6.35,0 z" /></g><g
           style="fill:#ffffff"
           transform="translate(230.3365,44.9079)"
           id="g66"><path
             id="path68"
             style="fill:#ffffff;fill-opacity:1;fill-rule:nonzero;stroke:none"
             d="m 0,0 0,-8.248 2.848,0 c 1.375,0 2.389,0.185 3.044,0.557 1.178,0.676 1.767,1.996 1.767,3.96 0,1.156 -0.371,2.067 -1.113,2.733 C 5.805,-0.333 4.768,0 3.438,0 L 0,0 Z m -2.88,-21.012 0,23.369 7.561,0 c 1.854,0 3.316,-0.519 4.385,-1.555 1.07,-1.036 1.604,-2.471 1.604,-4.304 0,-3.338 -1.2,-5.302 -3.6,-5.891 l 0,-0.065 c 0.982,-0.11 1.768,-0.53 2.357,-1.261 0.589,-0.731 0.905,-1.609 0.949,-2.634 l 0.196,-3.993 c 0.087,-1.987 0.502,-3.208 1.243,-3.666 l -3.468,0 c -0.415,0.414 -0.677,1.538 -0.786,3.371 l -0.197,3.633 c -0.087,1.418 -0.502,2.389 -1.243,2.913 -0.48,0.327 -1.223,0.491 -2.225,0.491 l -3.896,0 0,-10.408 -2.88,0 z" /></g><g
           style="fill:#ffffff"
           transform="translate(250.859,43.9592)"
           id="g70"><path
             id="path72"
             style="fill:#ffffff;fill-opacity:1;fill-rule:nonzero;stroke:none"
             d="m 0,0 -3.24,-11.292 6.284,0 L 0.065,0 0,0 Z m -8.575,-20.063 6.742,23.369 3.862,0 6.284,-23.369 -3.011,0 -1.669,6.415 -7.462,0 -1.735,-6.415 -3.011,0 z" /></g><g
           style="fill:#ffffff"
           transform="translate(263.6891,44.9079)"
           id="g74"><path
             id="path76"
             style="fill:#ffffff;fill-opacity:1;fill-rule:nonzero;stroke:none"
             d="m 0,0 0,-8.248 2.848,0 c 1.375,0 2.389,0.185 3.044,0.557 1.177,0.676 1.767,1.996 1.767,3.96 0,1.156 -0.371,2.067 -1.113,2.733 C 5.804,-0.333 4.768,0 3.437,0 L 0,0 Z m -2.88,-21.012 0,23.369 7.561,0 c 1.854,0 3.316,-0.519 4.385,-1.555 1.069,-1.036 1.604,-2.471 1.604,-4.304 0,-3.338 -1.2,-5.302 -3.601,-5.891 l 0,-0.065 c 0.983,-0.11 1.768,-0.53 2.358,-1.261 0.589,-0.731 0.904,-1.609 0.949,-2.634 l 0.196,-3.993 c 0.087,-1.987 0.501,-3.208 1.243,-3.666 l -3.468,0 c -0.415,0.414 -0.677,1.538 -0.786,3.371 l -0.197,3.633 c -0.087,1.418 -0.502,2.389 -1.243,2.913 -0.48,0.327 -1.223,0.491 -2.225,0.491 l -3.896,0 0,-10.408 -2.88,0 z" /></g><path
           id="path78"
           style="fill:#ffffff;fill-opacity:1;fill-rule:nonzero;stroke:none"
           d="m 277.796,47.265 2.88,0 0,-23.369 -2.88,0 0,23.369 z" /><g
           style="fill:#ffffff"
           transform="translate(284.4723,23.8957)"
           id="g80"><path
             id="path82"
             style="fill:#ffffff;fill-opacity:1;fill-rule:nonzero;stroke:none"
             d="m 0,0 0,23.369 12.077,0 0,-2.553 -9.197,0 0,-7.332 8.674,0 0,-2.552 -8.674,0 0,-8.379 9.59,0 L 12.47,0 0,0 Z" /></g><g
           style="fill:#ffffff"
           transform="translate(312.4225,41.2097)"
           id="g84"><path
             id="path86"
             style="fill:#ffffff;fill-opacity:1;fill-rule:nonzero;stroke:none"
             d="m 0,0 -2.88,0 c 0,2.771 -1.211,4.157 -3.633,4.157 -2.575,0 -3.862,-1.266 -3.862,-3.797 0,-1.789 0.949,-3.099 2.848,-3.927 1.767,-0.677 3.545,-1.354 5.335,-2.03 1.898,-1.091 2.847,-2.837 2.847,-5.236 0,-2.466 -0.797,-4.299 -2.389,-5.5 -1.288,-0.959 -2.913,-1.439 -4.877,-1.439 -2.618,0 -4.484,0.676 -5.597,2.029 -0.981,1.2 -1.473,3.12 -1.473,5.76 l 2.88,0 c 0,-1.724 0.207,-2.956 0.622,-3.698 0.633,-1.156 1.887,-1.735 3.764,-1.735 1.156,0 2.122,0.382 2.896,1.146 0.775,0.764 1.163,1.756 1.163,2.978 0,1.79 -0.95,3.12 -2.848,3.993 -1.767,0.676 -3.546,1.364 -5.335,2.062 -1.898,1.113 -2.847,2.881 -2.847,5.302 0,1.593 0.404,2.935 1.211,4.026 1.156,1.615 3.032,2.422 5.629,2.422 C -2.247,6.513 -0.065,4.342 0,0" /></g></g></g></g></svg>