<?xml version="1.0" encoding="UTF-8" standalone="no"?>
<svg
   xmlns:dc="http://purl.org/dc/elements/1.1/"
   xmlns:cc="http://creativecommons.org/ns#"
   xmlns:rdf="http://www.w3.org/1999/02/22-rdf-syntax-ns#"
   xmlns:svg="http://www.w3.org/2000/svg"
   xmlns="http://www.w3.org/2000/svg"
   viewBox="0 0 187.94189 42.753876"
   height="42.753876"
   width="187.94189"
   xml:space="preserve"
   version="1.1"
   id="svg2"><metadata
     id="metadata8"><rdf:RDF><cc:Work
         rdf:about=""><dc:format>image/svg+xml</dc:format><dc:type
           rdf:resource="http://purl.org/dc/dcmitype/StillImage" /><dc:title></dc:title></cc:Work></rdf:RDF></metadata><defs
     id="defs6"><clipPath
       id="clipPath18"
       clipPathUnits="userSpaceOnUse"><path
         id="path20"
         d="m 0,77.538 189.001,0 L 189.001,0 0,0 0,77.538 Z" /></clipPath></defs><g
     transform="matrix(1.25,0,0,-1.25,-25.259609,69.591)"
     id="g10"><g
       id="g4264"><path
         d="m 34.148,41.005 -1.292,0 0,11.196 1.292,0 0,-11.196 z m -1.622,0.799 -0.683,0 0,9.921 0.683,0 0,-9.921 z m -0.987,0.401 -0.317,0 0,9.072 0.317,0 0,-9.072 z m -0.805,0.175 -0.683,0 0,0.624 0.683,0 0,-0.624 z m -1.147,-0.2 -0.317,0 0,9.072 0.317,0 0,-9.072 z m -0.609,-0.376 -0.683,0 0,9.921 0.683,0 0,-9.921 z m -1.048,-0.799 -1.293,0 0,11.196 1.293,0 0,-11.196 z m -6.121,12.171 0,-12.421 1.999,0 0,11.871 2.414,0 0,-11.871 8.316,0 0,11.871 2.415,0 0,-11.871 2.194,0 0,12.421 -17.338,0 z"
         style="fill:#231f20;fill-opacity:1;fill-rule:nonzero;stroke:none"
         id="path12" /><g
         id="g14"><g
           id="g16"
           clip-path="url(#clipPath18)"><g
             id="g22"
             transform="translate(41.6626,52.0576)"><path
               d="m 0,0 c 1.23,0 1.391,-0.534 2.273,-2.166 1.123,-2.059 4.091,-10.348 5.428,-14.251 l 2.567,0.32 c 1.712,5.83 3.824,11.526 6.257,17.115 l -5.829,0 L 10.375,0 c 2.085,0 2.888,-0.534 2.888,-1.818 0,-1.497 -3.422,-10.161 -4.011,-12.353 l -0.053,0 C 6.899,-8.502 4.92,-2.567 4.92,-1.55 4.92,-0.588 5.482,0 7.701,0 l 0.321,1.018 -7.701,0 L 0,0 Z"
               style="fill:#231f20;fill-opacity:1;fill-rule:evenodd;stroke:none"
               id="path24" /></g><g
             id="g26"
             transform="translate(60.9185,51.4429)"><path
               d="m 0,0 c 0,0.696 -0.134,0.936 -0.455,0.936 -0.428,0 -1.791,-0.321 -1.791,-0.829 0,-0.695 0.053,-0.936 0.053,-1.337 0,-0.321 -0.027,-0.588 -0.053,-0.829 C -0.026,-1.203 0,-1.256 0,0 m 1.604,-15.482 0.321,1.017 c -1.818,0.053 -2.032,0.427 -2.032,2.298 l 0,7.648 c 0,0.589 0.053,1.203 0.053,1.604 -1.176,-0.454 -2.459,-0.748 -3.743,-0.908 l -0.321,-1.016 c 1.39,-0.054 1.978,-0.428 1.978,-1.605 l 0,-6.471 c 0,-1.123 -0.426,-1.497 -1.604,-1.55 l -0.32,-1.017 5.668,0 z"
               style="fill:#231f20;fill-opacity:1;fill-rule:evenodd;stroke:none"
               id="path28" /></g><g
             id="g30"
             transform="translate(69.4023,35.9604)"><path
               d="m 0,0 0.321,1.018 c -2.353,-0.028 -2.567,0.506 -2.567,3.02 0,3.289 0.321,4.707 1.097,5.615 0.507,0.509 1.069,0.615 2.62,0.668 l 0.802,2.247 c -2.487,0 -4.171,-1.551 -4.732,-3.583 l -0.054,0 0,3.583 c -1.096,-0.374 -2.273,-0.695 -3.423,-0.909 l -0.32,-1.016 c 1.657,0 1.978,-0.294 1.978,-1.524 l 0,-6.792 c 0,-0.962 -0.295,-1.257 -1.551,-1.309 L -6.149,0 0,0 Z"
               style="fill:#231f20;fill-opacity:1;fill-rule:evenodd;stroke:none"
               id="path32" /></g><g
             id="g34"
             transform="translate(81.7178,48.2617)"><path
               d="M 0,0 C -1.364,-0.054 -2.167,-0.081 -3.316,-0.375 -3.958,0.08 -5,0.267 -6.097,0.267 c -2.968,0 -4.6,-2.086 -4.6,-5.295 0,-1.738 0.616,-2.835 2.114,-3.61 -1.391,-0.883 -2.006,-1.39 -2.006,-2.193 0,-0.507 0.374,-0.961 0.802,-1.096 -1.203,-0.828 -1.711,-1.764 -1.711,-3.181 0,-2.434 2.54,-3.289 4.545,-3.289 2.942,0 6.846,1.524 6.846,4.973 0,1.844 -1.23,2.727 -3.29,2.727 -1.122,0 -2.271,-0.106 -3.234,-0.106 -1.124,0 -1.712,0.187 -1.712,0.668 0,0.614 0.614,1.15 0.963,1.15 3.983,0 5.615,2.674 5.615,5.321 0,0.588 -0.241,1.471 -0.695,2.22 L -0.535,-1.552 0,0 Z m -8.824,-4.439 c 0,2.941 0.373,3.369 2.058,3.369 2.488,0 2.969,-0.695 2.969,-3.156 0,-2.46 -0.428,-3.316 -2.059,-3.316 -1.899,0 -2.968,0.856 -2.968,3.103 m 7.22,-9.787 c 0,-1.604 -2.247,-2.406 -4.895,-2.406 -2.111,0 -3.127,1.176 -3.127,2.219 0,1.043 0.374,1.631 0.721,2.112 0.535,-0.16 1.819,-0.16 4.68,-0.16 1.711,0 2.621,-0.748 2.621,-1.765"
               style="fill:#231f20;fill-opacity:1;fill-rule:evenodd;stroke:none"
               id="path36" /></g><g
             id="g38"
             transform="translate(85.8857,51.4429)"><path
               d="m 0,0 c 0,0.696 -0.134,0.936 -0.455,0.936 -0.428,0 -1.791,-0.321 -1.791,-0.829 0,-0.695 0.053,-0.936 0.053,-1.337 0,-0.321 -0.026,-0.588 -0.053,-0.829 C -0.026,-1.203 0,-1.256 0,0 m 1.604,-15.482 0.322,1.017 c -1.819,0.053 -2.033,0.427 -2.033,2.298 l 0,7.648 c 0,0.589 0.053,1.203 0.053,1.604 -1.176,-0.454 -2.459,-0.748 -3.743,-0.908 l -0.321,-1.016 c 1.39,-0.054 1.979,-0.428 1.979,-1.605 l 0,-6.471 c 0,-1.123 -0.428,-1.497 -1.605,-1.55 l -0.32,-1.017 5.668,0 z"
               style="fill:#231f20;fill-opacity:1;fill-rule:evenodd;stroke:none"
               id="path40" /></g><g
             id="g42"
             transform="translate(98.0059,40.1323)"><path
               d="m 0,0 c 0,-2.861 -0.4,-2.915 -1.925,-3.154 l -0.321,-1.018 5.723,0 0.32,1.018 c -1.39,0.052 -1.764,0.587 -1.764,1.656 l 0,6.578 c 0,1.818 -1.284,3.316 -3.503,3.316 -2.38,0 -3.396,-1.23 -4.573,-2.781 l -0.054,0 0,2.781 C -7.299,7.941 -8.369,7.621 -9.572,7.38 L -9.893,6.364 c 1.684,-0.053 1.925,-0.24 1.925,-2.968 l 0,-3.61 c 0,-2.46 -0.187,-2.593 -1.551,-2.94 l -0.32,-1.018 6.043,0 0.32,1.018 c -2.005,0.186 -2.46,0.453 -2.46,2.913 l 0,1.257 c 0,4.171 1.07,5.615 3.236,5.615 C -0.855,6.631 0,5.83 0,3.477 L 0,0 Z"
               style="fill:#231f20;fill-opacity:1;fill-rule:evenodd;stroke:none"
               id="path44" /></g><g
             id="g46"
             transform="translate(106.2324,51.4429)"><path
               d="m 0,0 c 0,0.696 -0.133,0.936 -0.454,0.936 -0.428,0 -1.793,-0.321 -1.793,-0.829 0,-0.695 0.055,-0.936 0.055,-1.337 0,-0.321 -0.027,-0.588 -0.055,-0.829 C -0.026,-1.203 0,-1.256 0,0 m 1.605,-15.482 0.32,1.017 c -1.818,0.053 -2.031,0.427 -2.031,2.298 l 0,7.648 c 0,0.589 0.053,1.203 0.053,1.604 -1.177,-0.454 -2.46,-0.748 -3.743,-0.908 l -0.321,-1.016 c 1.39,-0.054 1.978,-0.428 1.978,-1.605 l 0,-6.471 c 0,-1.123 -0.428,-1.497 -1.605,-1.55 l -0.32,-1.017 5.669,0 z"
               style="fill:#231f20;fill-opacity:1;fill-rule:evenodd;stroke:none"
               id="path48" /></g><g
             id="g50"
             transform="translate(115.3579,40.0786)"><path
               d="m 0,0 c 0,-1.444 -0.961,-2.941 -3.048,-2.941 -1.016,0 -1.818,0.803 -1.818,1.872 0,1.818 2.193,2.46 4.866,3.743 L 0,0 Z m 3.797,-3.101 c -1.444,0.053 -1.764,0.534 -1.764,1.283 l 0,7.112 c 0,2.247 -0.963,3.156 -3.931,3.156 -2.166,0 -3.021,-0.267 -3.716,-0.508 L -6.257,6.203 c 1.231,0.269 2.434,0.589 3.664,0.589 C -0.748,6.792 0,6.15 0,5.187 L 0,3.878 c -2.406,-1.524 -7.058,-2.22 -7.058,-5.402 0,-1.898 1.577,-2.914 3.262,-2.914 1.924,0 2.861,0.588 3.903,2.139 l 0.054,0 0,-1.819 3.209,0 0.427,1.017 z"
               style="fill:#231f20;fill-opacity:1;fill-rule:evenodd;stroke:none"
               id="path52" /></g><g
             id="g54"
             transform="translate(121.7271,35.9136)"><path
               d="m 0,0 8.183,0 0.32,1.017 C 5.722,1.07 5.294,1.765 5.294,5.668 l 0,6.579 c 0,1.817 0.053,2.753 0.107,3.69 3.932,0 4.546,-0.375 4.814,-3.53 l 1.177,0.428 0,4.279 -14.226,0 0,-4.707 1.176,0.428 c 0.267,2.727 0.669,3.102 4.813,3.102 C 3.208,15 3.262,13.958 3.262,12.247 l 0,-6.579 C 3.262,1.765 2.834,1.07 0.321,1.017 L 0,0 Z"
               style="fill:#231f20;fill-opacity:1;fill-rule:evenodd;stroke:none"
               id="path56" /></g><g
             id="g58"
             transform="translate(133.3828,43.7749)"><path
               d="M 0,0 C 0.535,2.834 1.336,3.53 3.103,3.53 4.866,3.53 5.989,2.246 5.989,1.149 5.989,0.481 5.723,0.267 4.385,0.214 L 0,0 Z M 7.968,-5.99 C 6.819,-6.203 5.669,-6.524 4.519,-6.524 c -3.235,0 -4.573,2.032 -4.573,5.348 l 8.45,0.214 c 0,4.01 -2.086,5.668 -4.867,5.668 -3.208,0 -5.775,-2.621 -5.775,-6.524 0,-4.012 2.567,-6.364 6.07,-6.364 1.203,0 2.433,0.241 3.61,0.535 l 0.534,1.657 z"
               style="fill:#231f20;fill-opacity:1;fill-rule:evenodd;stroke:none"
               id="path60" /></g><g
             id="g62"
             transform="translate(151.3071,48.1602)"><path
               d="m 0,0 c -0.615,0.161 -1.203,0.321 -2.192,0.321 -3.69,0 -6.526,-2.353 -6.526,-6.578 0,-4.118 2.301,-6.31 6.418,-6.31 0.616,0 1.604,0.106 2.568,0.32 l 0.534,1.712 c -0.775,-0.161 -1.791,-0.375 -2.781,-0.375 -2.887,0 -4.545,1.551 -4.545,5.188 0,1.765 0.562,3.69 1.337,4.198 0.321,0.214 0.962,0.347 1.764,0.347 1.418,0 2.568,-0.347 3.691,-0.696 L 0,0 Z"
               style="fill:#231f20;fill-opacity:1;fill-rule:evenodd;stroke:none"
               id="path64" /></g><g
             id="g66"
             transform="translate(154.0547,48.3198)"><path
               d="m 0,0 0,-8.577 c 0,-2.401 -0.183,-2.531 -1.618,-2.871 l -0.314,-0.991 5.953,0 0.311,0.991 c -1.905,0.183 -2.349,0.445 -2.349,2.844 l 0,1.227 c 0,4.073 1.045,5.482 3.159,5.482 1.801,0 2.636,-0.783 2.636,-3.079 l 0,-3.394 c 0,-2.793 -0.391,-2.845 -1.984,-3.08 l -0.313,-0.991 5.899,0 0.313,0.991 c -1.566,0.052 -1.932,0.574 -1.932,1.618 l 0,6.421 c 0,1.775 -1.252,3.237 -3.418,3.237 -2.322,0 -3.315,-1.149 -4.307,-2.454 l -0.053,0 0,2.626 0,1.107 c 0,2.559 0.053,4.15 0.105,4.646 C 1.174,5.388 -0.758,4.892 -2.088,4.552 L -2.402,3.561 C -0.523,3.509 0,3.352 0,0.846 L 0,0 Z"
               style="fill:#231f20;fill-opacity:1;fill-rule:nonzero;stroke:none"
               id="path68" /></g><g
             id="g70"
             transform="translate(28.4492,37.7021)"><path
               d="m 0,0 c 0.143,0.033 0.285,0.192 0.285,0.369 0,0.193 -0.109,0.384 -0.356,0.384 l -0.006,0 C -0.312,0.753 -0.429,0.594 -0.429,0.407 -0.429,0.22 -0.236,0.078 0,0 m -0.122,-0.6 c -0.214,-0.055 -0.341,-0.22 -0.341,-0.44 0,-0.218 0.165,-0.427 0.407,-0.427 l 0.005,0 c 0.232,0 0.39,0.159 0.39,0.367 0,0.259 -0.202,0.434 -0.461,0.5 m 9.273,-1.382 -2.402,0 0,0.544 0.45,0.395 c 0.658,0.568 0.993,0.908 0.998,1.238 0,0.234 -0.155,0.404 -0.484,0.404 -0.27,0 -0.514,-0.135 -0.694,-0.265 L 6.774,0.979 c 0.25,0.185 0.659,0.339 1.119,0.339 0.753,0 1.203,-0.409 1.203,-1.048 0,-0.52 -0.369,-0.939 -0.754,-1.254 l -0.32,-0.249 0,-0.01 1.129,0 0,-0.739 z m -4,2.686 -1.303,-2.686 -0.959,0 1.308,2.496 0,0.01 -1.443,0 0,0.739 2.397,0 0,-0.559 z m -5.237,-2.741 c -0.894,0 -1.259,0.489 -1.259,0.909 0,0.389 0.215,0.644 0.55,0.794 l 0,0.009 c -0.295,0.165 -0.45,0.425 -0.45,0.709 0,0.565 0.519,0.934 1.199,0.934 l 0.004,0 c 0.824,0 1.139,-0.459 1.139,-0.849 0,-0.28 -0.16,-0.549 -0.45,-0.699 l 0,-0.01 c 0.28,-0.105 0.575,-0.364 0.575,-0.794 0,-0.599 -0.5,-1.003 -1.308,-1.003 m -3.381,0.055 -0.869,0 0,2.451 -0.01,0 -0.639,-0.289 -0.145,0.674 0.929,0.409 0.734,0 0,-3.245 z m -3.162,4.399 0,-0.411 0,-2.982 c 0,0 -0.144,-1.119 0.545,-1.616 0.649,-0.469 8.115,-3.653 8.115,-3.653 0,0 7.518,3.228 8.124,3.752 0.544,0.472 0.544,1.517 0.544,1.517 l 0,2.982 0,0.412 -17.328,-0.001 z"
               style="fill:#231f20;fill-opacity:1;fill-rule:nonzero;stroke:none"
               id="path72" /></g><g
             id="g74"
             transform="translate(83.2607,23.1924)"><path
               d="m 0,0 1.577,7.519 1.001,0 L 1.001,0 0,0 Z"
               style="fill:#231f20;fill-opacity:1;fill-rule:nonzero;stroke:none"
               id="path76" /></g><g
             id="g78"
             transform="translate(86.2822,23.1924)"><path
               d="m 0,0 1.145,5.451 0.843,0 L 1.789,4.507 C 2.156,4.878 2.5,5.149 2.821,5.319 3.141,5.489 3.468,5.574 3.802,5.574 4.246,5.574 4.594,5.453 4.847,5.21 5.1,4.967 5.227,4.644 5.227,4.238 5.227,4.037 5.179,3.721 5.085,3.288 L 4.353,0 3.43,0 4.195,3.454 c 0.076,0.335 0.114,0.583 0.114,0.744 0,0.181 -0.063,0.328 -0.19,0.441 C 3.993,4.751 3.809,4.808 3.569,4.808 3.086,4.808 2.656,4.636 2.279,4.294 1.903,3.951 1.626,3.364 1.449,2.531 L 0.923,0 0,0 Z"
               style="fill:#231f20;fill-opacity:1;fill-rule:nonzero;stroke:none"
               id="path80" /></g><g
             id="g82"
             transform="translate(93.6514,23.1924)"><path
               d="m 0,0 -0.886,5.451 0.901,0 0.462,-2.997 C 0.527,2.125 0.589,1.591 0.664,0.85 0.842,1.235 1.07,1.678 1.347,2.177 l 1.825,3.274 0.978,0 L 1.022,0 0,0 Z"
               style="fill:#231f20;fill-opacity:1;fill-rule:nonzero;stroke:none"
               id="path84" /></g><g
             id="g86"
             transform="translate(98.9517,26.4082)"><path
               d="M 0,0 3.076,0 C 3.079,0.095 3.081,0.163 3.081,0.204 3.081,0.667 2.964,1.021 2.73,1.269 2.497,1.515 2.195,1.638 1.827,1.638 1.428,1.638 1.064,1.502 0.735,1.23 0.407,0.958 0.162,0.548 0,0 M 2.718,-1.394 3.62,-1.47 C 3.49,-1.915 3.191,-2.337 2.723,-2.738 c -0.468,-0.4 -1.026,-0.6 -1.673,-0.6 -0.404,0 -0.776,0.093 -1.113,0.28 -0.338,0.186 -0.595,0.457 -0.771,0.813 -0.177,0.355 -0.265,0.761 -0.265,1.216 0,0.595 0.138,1.173 0.413,1.732 0.276,0.56 0.634,0.975 1.072,1.247 C 0.825,2.222 1.3,2.358 1.81,2.358 2.461,2.358 2.981,2.156 3.37,1.752 3.76,1.349 3.954,0.798 3.954,0.101 3.954,-0.166 3.93,-0.439 3.882,-0.72 l -4.032,0 c -0.01,-0.106 -0.015,-0.201 -0.015,-0.286 0,-0.509 0.118,-0.897 0.353,-1.165 0.235,-0.268 0.523,-0.402 0.864,-0.402 0.32,0 0.635,0.101 0.945,0.304 0.309,0.202 0.55,0.494 0.721,0.875"
               style="fill:#231f20;fill-opacity:1;fill-rule:nonzero;stroke:none"
               id="path88" /></g><g
             id="g90"
             transform="translate(103.7612,23.1924)"><path
               d="m 0,0 1.144,5.451 0.844,0 -0.2,-0.944 C 2.156,4.878 2.5,5.149 2.82,5.319 3.141,5.489 3.467,5.574 3.801,5.574 4.246,5.574 4.594,5.453 4.847,5.21 5.1,4.967 5.227,4.644 5.227,4.238 5.227,4.037 5.179,3.721 5.085,3.288 L 4.353,0 3.43,0 4.195,3.454 c 0.076,0.335 0.114,0.583 0.114,0.744 0,0.181 -0.063,0.328 -0.19,0.441 C 3.992,4.751 3.809,4.808 3.569,4.808 3.086,4.808 2.656,4.636 2.28,4.294 1.902,3.951 1.625,3.364 1.448,2.531 L 0.922,0 0,0 Z"
               style="fill:#231f20;fill-opacity:1;fill-rule:nonzero;stroke:none"
               id="path92" /></g><g
             id="g94"
             transform="translate(112.0776,23.9453)"><path
               d="m 0,0 -0.153,-0.758 c -0.222,-0.057 -0.437,-0.087 -0.645,-0.087 -0.372,0 -0.667,0.091 -0.888,0.273 -0.164,0.136 -0.246,0.322 -0.246,0.558 0,0.12 0.044,0.396 0.133,0.826 l 0.658,3.167 -0.734,0 0.152,0.719 0.736,0 0.286,1.325 1.076,0.635 -0.413,-1.96 0.919,0 -0.184,-0.719 -0.904,0 -0.627,-3.016 C -0.914,0.58 -0.953,0.35 -0.953,0.275 c 0,-0.109 0.032,-0.193 0.095,-0.251 0.064,-0.059 0.167,-0.088 0.311,-0.088 0.205,0 0.387,0.022 0.547,0.064"
               style="fill:#231f20;fill-opacity:1;fill-rule:nonzero;stroke:none"
               id="path96" /></g><g
             id="g98"
             transform="translate(118.5342,23.9453)"><path
               d="m 0,0 -0.154,-0.758 c -0.222,-0.057 -0.437,-0.087 -0.645,-0.087 -0.372,0 -0.667,0.091 -0.888,0.273 -0.164,0.136 -0.246,0.322 -0.246,0.558 0,0.12 0.044,0.396 0.133,0.826 l 0.658,3.167 -0.734,0 0.153,0.719 0.735,0 0.286,1.325 1.077,0.635 -0.414,-1.96 0.919,0 -0.184,-0.719 -0.904,0 -0.627,-3.016 C -0.914,0.58 -0.954,0.35 -0.954,0.275 c 0,-0.109 0.032,-0.193 0.095,-0.251 0.064,-0.059 0.167,-0.088 0.31,-0.088 0.205,0 0.388,0.022 0.549,0.064"
               style="fill:#231f20;fill-opacity:1;fill-rule:nonzero;stroke:none"
               id="path100" /></g><g
             id="g102"
             transform="translate(119.5449,23.1924)"><path
               d="m 0,0 1.577,7.519 0.923,0 -0.607,-2.894 c 0.338,0.338 0.653,0.581 0.944,0.728 0.291,0.147 0.591,0.221 0.899,0.221 0.442,0 0.785,-0.12 1.03,-0.36 C 5.011,4.975 5.133,4.658 5.133,4.266 5.133,4.075 5.076,3.723 4.961,3.211 L 4.26,0 3.338,0 4.057,3.299 C 4.16,3.778 4.211,4.08 4.211,4.203 4.211,4.38 4.151,4.526 4.031,4.639 3.911,4.751 3.737,4.808 3.51,4.808 3.183,4.808 2.871,4.72 2.574,4.543 2.277,4.367 2.044,4.125 1.875,3.818 1.707,3.512 1.553,3.017 1.413,2.335 L 0.923,0 0,0 Z"
               style="fill:#231f20;fill-opacity:1;fill-rule:nonzero;stroke:none"
               id="path104" /></g><g
             id="g106"
             transform="translate(126.8911,26.4082)"><path
               d="M 0,0 3.076,0 C 3.08,0.095 3.081,0.163 3.081,0.204 3.081,0.667 2.964,1.021 2.73,1.269 2.497,1.515 2.195,1.638 1.827,1.638 1.428,1.638 1.064,1.502 0.735,1.23 0.407,0.958 0.162,0.548 0,0 M 2.719,-1.394 3.62,-1.47 C 3.49,-1.915 3.191,-2.337 2.723,-2.738 c -0.468,-0.4 -1.026,-0.6 -1.673,-0.6 -0.404,0 -0.776,0.093 -1.113,0.28 -0.338,0.186 -0.595,0.457 -0.771,0.813 -0.177,0.355 -0.265,0.761 -0.265,1.216 0,0.595 0.138,1.173 0.413,1.732 0.276,0.56 0.634,0.975 1.072,1.247 0.439,0.272 0.914,0.408 1.425,0.408 0.65,0 1.171,-0.202 1.559,-0.606 0.39,-0.403 0.584,-0.954 0.584,-1.651 0,-0.267 -0.024,-0.54 -0.072,-0.821 l -4.032,0 c -0.01,-0.106 -0.015,-0.201 -0.015,-0.286 0,-0.509 0.118,-0.897 0.353,-1.165 0.236,-0.268 0.523,-0.402 0.864,-0.402 0.32,0 0.635,0.101 0.945,0.304 0.309,0.202 0.55,0.494 0.722,0.875"
               style="fill:#231f20;fill-opacity:1;fill-rule:nonzero;stroke:none"
               id="path108" /></g><g
             id="g110"
             transform="translate(133.8052,23.1924)"><path
               d="m 0,0 1.575,7.519 4.889,0 -0.184,-0.858 -3.884,0 -0.5,-2.389 3.959,0 -0.184,-0.857 -3.955,0 L 1.001,0 0,0 Z"
               style="fill:#231f20;fill-opacity:1;fill-rule:nonzero;stroke:none"
               id="path112" /></g><g
             id="g114"
             transform="translate(143.9258,24.1777)"><path
               d="m 0,0 c -0.651,-0.739 -1.317,-1.108 -1.999,-1.108 -0.419,0 -0.757,0.12 -1.015,0.361 -0.257,0.241 -0.385,0.535 -0.385,0.883 0,0.23 0.063,0.623 0.19,1.182 l 0.718,3.148 0.938,0 -0.799,-3.531 C -2.419,0.64 -2.453,0.412 -2.453,0.249 c 0,-0.187 0.062,-0.332 0.188,-0.436 0.126,-0.103 0.311,-0.155 0.556,-0.155 0.262,0 0.518,0.063 0.768,0.188 0.249,0.125 0.464,0.295 0.646,0.508 0.18,0.214 0.328,0.467 0.441,0.758 0.076,0.187 0.164,0.514 0.264,0.982 l 0.529,2.372 0.922,0 -1.206,-5.451 -0.86,0 L 0,0 Z"
               style="fill:#231f20;fill-opacity:1;fill-rule:nonzero;stroke:none"
               id="path116" /></g><g
             id="g118"
             transform="translate(148.585,23.9453)"><path
               d="m 0,0 -0.154,-0.758 c -0.222,-0.057 -0.437,-0.087 -0.645,-0.087 -0.372,0 -0.667,0.091 -0.888,0.273 -0.164,0.136 -0.246,0.322 -0.246,0.558 0,0.12 0.044,0.396 0.133,0.826 l 0.658,3.167 -0.734,0 0.153,0.719 0.735,0 0.286,1.325 1.077,0.635 -0.414,-1.96 0.919,0 -0.184,-0.719 -0.904,0 -0.627,-3.016 C -0.914,0.58 -0.954,0.35 -0.954,0.275 c 0,-0.109 0.032,-0.193 0.095,-0.251 0.064,-0.059 0.167,-0.088 0.31,-0.088 0.205,0 0.388,0.022 0.549,0.064"
               style="fill:#231f20;fill-opacity:1;fill-rule:nonzero;stroke:none"
               id="path120" /></g><g
             id="g122"
             transform="translate(153.2197,24.1777)"><path
               d="m 0,0 c -0.651,-0.739 -1.317,-1.108 -1.999,-1.108 -0.419,0 -0.757,0.12 -1.015,0.361 -0.257,0.241 -0.385,0.535 -0.385,0.883 0,0.23 0.063,0.623 0.19,1.182 l 0.718,3.148 0.938,0 -0.8,-3.531 C -2.419,0.64 -2.454,0.412 -2.454,0.249 c 0,-0.187 0.063,-0.332 0.189,-0.436 0.126,-0.103 0.311,-0.155 0.556,-0.155 0.262,0 0.518,0.063 0.767,0.188 0.25,0.125 0.465,0.295 0.646,0.508 0.181,0.214 0.328,0.467 0.442,0.758 0.076,0.187 0.164,0.514 0.264,0.982 l 0.529,2.372 0.922,0 -1.206,-5.451 -0.86,0 L 0,0 Z"
               style="fill:#231f20;fill-opacity:1;fill-rule:nonzero;stroke:none"
               id="path124" /></g><g
             id="g126"
             transform="translate(155.6543,23.1924)"><path
               d="m 0,0 1.133,5.451 0.834,0 L 1.729,4.337 C 2.014,4.757 2.29,5.069 2.558,5.271 2.826,5.473 3.1,5.574 3.38,5.574 3.564,5.574 3.792,5.502 4.062,5.359 L 3.683,4.502 C 3.522,4.625 3.346,4.686 3.155,4.686 2.831,4.686 2.496,4.504 2.15,4.141 1.806,3.778 1.532,3.125 1.331,2.183 L 0.88,0 0,0 Z"
               style="fill:#231f20;fill-opacity:1;fill-rule:nonzero;stroke:none"
               id="path128" /></g><g
             id="g130"
             transform="translate(160.8154,26.4082)"><path
               d="M 0,0 3.076,0 C 3.08,0.095 3.082,0.163 3.082,0.204 3.082,0.667 2.965,1.021 2.73,1.269 2.497,1.515 2.195,1.638 1.828,1.638 1.429,1.638 1.064,1.502 0.736,1.23 0.407,0.958 0.162,0.548 0,0 M 2.719,-1.394 3.621,-1.47 C 3.49,-1.915 3.191,-2.337 2.724,-2.738 c -0.468,-0.4 -1.027,-0.6 -1.673,-0.6 -0.405,0 -0.776,0.093 -1.113,0.28 -0.338,0.186 -0.595,0.457 -0.772,0.813 -0.176,0.355 -0.265,0.761 -0.265,1.216 0,0.595 0.138,1.173 0.414,1.732 0.276,0.56 0.633,0.975 1.072,1.247 0.439,0.272 0.914,0.408 1.424,0.408 0.651,0 1.171,-0.202 1.56,-0.606 0.389,-0.403 0.584,-0.954 0.584,-1.651 0,-0.267 -0.024,-0.54 -0.072,-0.821 l -4.031,0 c -0.012,-0.106 -0.016,-0.201 -0.016,-0.286 0,-0.509 0.117,-0.897 0.352,-1.165 0.236,-0.268 0.525,-0.402 0.865,-0.402 0.32,0 0.634,0.101 0.944,0.304 0.31,0.202 0.55,0.494 0.722,0.875"
               style="fill:#231f20;fill-opacity:1;fill-rule:nonzero;stroke:none"
               id="path132" /></g><g
             id="g134"
             transform="translate(166.7002,29.9761)"><path
               d="M 0,0 0.16,0 C 0.387,0 0.526,0.009 0.582,0.026 0.637,0.044 0.68,0.075 0.713,0.119 0.743,0.162 0.76,0.212 0.76,0.268 0.76,0.321 0.744,0.37 0.713,0.412 0.682,0.454 0.639,0.484 0.582,0.502 0.523,0.521 0.383,0.53 0.16,0.53 L 0,0.53 0,0 Z m -0.395,-1.106 0,1.945 0.394,0 c 0.368,0 0.576,-0.002 0.62,-0.005 C 0.748,0.823 0.85,0.797 0.924,0.757 0.996,0.716 1.056,0.654 1.104,0.57 1.152,0.486 1.178,0.393 1.178,0.292 1.178,0.15 1.132,0.031 1.041,-0.069 0.948,-0.168 0.82,-0.23 0.654,-0.255 0.714,-0.277 0.76,-0.301 0.791,-0.328 0.822,-0.354 0.867,-0.404 0.922,-0.477 0.937,-0.496 0.984,-0.575 1.066,-0.714 l 0.229,-0.392 -0.488,0 -0.162,0.316 c -0.11,0.212 -0.201,0.346 -0.272,0.401 -0.071,0.056 -0.162,0.083 -0.27,0.083 l -0.103,0 0,-0.8 -0.395,0 z M 0.433,1.348 C 0.182,1.348 -0.06,1.286 -0.291,1.159 -0.521,1.033 -0.704,0.852 -0.836,0.616 -0.969,0.38 -1.035,0.133 -1.035,-0.125 c 0,-0.257 0.063,-0.501 0.194,-0.734 0.13,-0.233 0.311,-0.415 0.543,-0.546 0.232,-0.131 0.476,-0.196 0.731,-0.196 0.256,0 0.501,0.065 0.733,0.196 0.23,0.131 0.412,0.313 0.543,0.546 0.129,0.233 0.195,0.477 0.195,0.734 0,0.258 -0.066,0.505 -0.199,0.741 C 1.571,0.852 1.39,1.033 1.158,1.159 0.926,1.286 0.684,1.348 0.433,1.348 M 0.43,1.708 C 0.743,1.708 1.045,1.629 1.333,1.472 1.621,1.315 1.849,1.09 2.014,0.796 2.178,0.502 2.261,0.196 2.261,-0.125 2.261,-0.444 2.18,-0.748 2.018,-1.038 1.855,-1.327 1.631,-1.553 1.342,-1.714 1.053,-1.876 0.748,-1.957 0.43,-1.957 c -0.319,0 -0.623,0.081 -0.912,0.243 -0.289,0.161 -0.516,0.387 -0.677,0.676 -0.161,0.29 -0.242,0.594 -0.242,0.913 0,0.321 0.083,0.627 0.247,0.921 0.166,0.294 0.392,0.519 0.68,0.676 0.288,0.157 0.589,0.236 0.904,0.236"
               style="fill:#231f20;fill-opacity:1;fill-rule:nonzero;stroke:none"
               id="path136" /></g></g></g></g></g></svg>